<svg id="Test_Page" data-name="Test Page" xmlns="http://www.w3.org/2000/svg" viewBox="0 0 300 169">
  <defs>
    <style>
		.cls-8, .cls-5 { font-family: LexendDeca-Medium, 'Lexend Deca'; font-variation-settings: 'wght' 500; }
		.cls-5 { font-size: 15.84px; }
		.cls-8 { font-size: 5.39px; }
	  
		.c1 { fill: colorlist[0] }
		.c2 { fill: colorlist[1] }
		.c3 { fill: colorlist[2] }
	  	.c4 { fill: colorlist[3] }
		.c5 { fill: colorlist[4] }
	  	.c6 { fill: colorlist[5] }
	  	.c7 { fill: colorlist[6] }
	  	.c8 { fill: colorlist[7] }	  
    </style>
  </defs>
  <rect id="Manyy_Error_Line" data-name="Manyy Error Line" class="cls-6 c7" x="23.85" y="102.03" width="40.46" height=".86"/>
  <rect id="Helpp_Error_Line" data-name="Helpp Error Line" class="cls-6 c7" x="132.61" y="85.32" width="39.83" height=".86"/>
  <rect id="Caret" class="cls-1 c3" x="189.9" y="89.22" width=".97" height="13.38"/>
  <g id="Test_Text" data-name="Test Text">
    <g id="Sub" class="c4">
      <path class="cls-7" d="M201.23,93.42c.12-.12,.25-.23,.39-.33,.22-.16,.46-.28,.71-.36,.26-.08,.54-.12,.83-.13,.38,0,.73,.06,1.05,.17,.31,.11,.58,.28,.8,.52s.39,.53,.51,.89c.12,.36,.18,.79,.18,1.28v4.62h-1.25v-4.63c0-.29-.03-.54-.1-.76-.07-.22-.17-.4-.3-.55-.14-.16-.32-.28-.53-.36s-.46-.12-.73-.11c-.23,0-.44,.03-.64,.09-.2,.06-.39,.15-.56,.27-.14,.09-.26,.2-.38,.32s-.22,.25-.31,.4v5.33h-1.25v-10.42h1.25v4.17c.1-.15,.21-.29,.33-.41Z"/>
      <path class="cls-7" d="M211.93,92.74v6.25h2.39v1.08h-6.14v-1.08h2.5v-5.16h-2.5v-1.09h3.75Zm-1.37-2.23c.03-.09,.09-.18,.16-.24,.06-.06,.13-.1,.23-.14s.2-.05,.32-.05,.22,.02,.31,.05c.09,.03,.17,.08,.22,.14,.07,.06,.13,.14,.16,.24,.04,.1,.05,.2,.05,.31,0,.2-.06,.37-.19,.51-.13,.14-.31,.2-.56,.2s-.44-.07-.57-.2-.19-.31-.19-.51c0-.11,.02-.21,.05-.31Z"/>
      <path class="cls-7" d="M216.29,94.84c.13-.46,.33-.85,.58-1.18s.56-.59,.92-.77c.36-.19,.77-.28,1.23-.28,.29,0,.56,.03,.81,.1,.25,.07,.47,.17,.67,.3,.11,.07,.21,.15,.31,.24,.1,.09,.19,.19,.27,.3l.06-.8h1.14v7.18c0,.48-.08,.91-.23,1.29-.15,.38-.36,.69-.63,.96-.28,.26-.6,.46-.98,.6s-.8,.2-1.26,.2c-.19,0-.41-.02-.65-.06s-.49-.11-.74-.21c-.25-.09-.5-.22-.73-.39-.23-.16-.43-.36-.6-.6l.65-.75c.15,.19,.31,.34,.47,.47,.16,.13,.33,.23,.5,.31,.17,.08,.33,.13,.5,.17s.33,.05,.5,.05c.3,0,.57-.04,.81-.13,.24-.09,.45-.21,.62-.38,.17-.16,.3-.37,.39-.61,.09-.24,.13-.52,.13-.84v-.63c-.09,.11-.2,.21-.3,.3-.11,.09-.22,.17-.34,.24-.19,.1-.4,.18-.63,.24s-.48,.08-.75,.08c-.45,0-.85-.09-1.21-.29-.36-.19-.67-.45-.92-.79-.25-.33-.45-.73-.58-1.18-.14-.46-.2-.94-.2-1.47v-.14c0-.55,.07-1.05,.2-1.51Zm1.17,2.67c.07,.32,.19,.6,.36,.85,.16,.24,.36,.44,.61,.58,.25,.14,.55,.21,.9,.21,.22,0,.41-.03,.59-.08,.17-.05,.33-.13,.47-.22,.14-.09,.26-.21,.37-.34,.11-.13,.2-.28,.28-.43v-3.36c-.08-.15-.18-.29-.28-.42-.11-.13-.23-.24-.37-.33-.14-.09-.3-.16-.47-.21-.17-.05-.36-.08-.57-.08-.35,0-.65,.07-.91,.22s-.46,.34-.61,.58c-.16,.25-.28,.54-.36,.86-.08,.32-.11,.66-.11,1.02v.14c0,.36,.04,.7,.11,1.02Z"/>
      <path class="cls-7" d="M226.24,93.42c.12-.12,.25-.23,.39-.33,.22-.16,.46-.28,.71-.36,.26-.08,.54-.12,.83-.13,.38,0,.73,.06,1.05,.17,.31,.11,.58,.28,.8,.52s.39,.53,.51,.89c.12,.36,.18,.79,.18,1.28v4.62h-1.25v-4.63c0-.29-.03-.54-.1-.76-.07-.22-.17-.4-.3-.55-.14-.16-.32-.28-.53-.36s-.46-.12-.73-.11c-.23,0-.44,.03-.64,.09-.2,.06-.39,.15-.56,.27-.14,.09-.26,.2-.38,.32s-.22,.25-.31,.4v5.33h-1.25v-10.42h1.25v4.17c.1-.15,.21-.29,.33-.41Z"/>
      <path class="cls-7" d="M241.33,92.74h1.13l.09,1.09c.11-.15,.23-.3,.36-.42s.27-.24,.41-.33c.22-.14,.45-.26,.71-.34,.26-.08,.53-.12,.81-.13,.38,0,.73,.05,1.05,.16s.58,.28,.8,.51,.39,.52,.51,.88c.12,.36,.18,.78,.18,1.27v4.66h-1.25v-4.63c0-.33-.04-.6-.11-.83-.07-.23-.18-.41-.32-.55-.14-.14-.32-.24-.53-.31s-.44-.09-.71-.09c-.23,0-.45,.03-.64,.1-.2,.07-.38,.16-.55,.27-.14,.1-.26,.21-.38,.35s-.22,.28-.3,.43v5.26h-1.25v-7.34Z"/>
      <path class="cls-7" d="M249.54,94.87c.15-.46,.38-.85,.67-1.18,.29-.33,.63-.6,1.04-.79,.41-.19,.88-.29,1.39-.29s.99,.1,1.4,.29c.41,.19,.76,.46,1.05,.79,.28,.33,.5,.73,.66,1.18,.15,.45,.23,.95,.23,1.47v.15c0,.53-.08,1.02-.23,1.47-.15,.45-.37,.85-.66,1.18-.29,.33-.64,.6-1.05,.79-.41,.19-.88,.29-1.39,.29s-.99-.09-1.4-.29c-.41-.19-.76-.45-1.05-.79-.29-.33-.51-.73-.67-1.18-.15-.45-.23-.94-.23-1.47v-.15c0-.53,.08-1.02,.23-1.47Zm1.15,2.66c.09,.33,.22,.62,.39,.87,.17,.25,.39,.45,.65,.59,.26,.14,.57,.22,.92,.22s.65-.07,.91-.22c.26-.14,.48-.34,.66-.59,.17-.25,.3-.54,.39-.87,.08-.33,.13-.67,.13-1.03v-.15c0-.36-.04-.7-.13-1.03s-.22-.62-.39-.87c-.18-.25-.39-.45-.65-.59-.26-.15-.56-.22-.91-.22s-.65,.07-.91,.22c-.26,.15-.47,.34-.64,.59-.18,.25-.31,.54-.39,.87s-.13,.67-.13,1.03v.15c0,.36,.04,.71,.13,1.03Z"/>
      <path class="cls-7" d="M257.14,92.74h1.11l.85,4.68,.15,1.05,.18-1.05,1.17-4.68h.81l1.17,4.68,.2,1.15,.18-1.15,.81-4.68h1.11l-1.56,7.34h-.99l-1.15-4.5-.19-1.14-.18,1.14-1.13,4.5h-.99l-1.56-7.34Z"/>
      <path class="cls-7" d="M24.59,109.41h1.15l.06,.8c.1-.13,.21-.24,.33-.34s.24-.19,.38-.26c.19-.11,.4-.19,.63-.25s.48-.08,.75-.08c.47,0,.89,.09,1.25,.28,.36,.19,.66,.44,.91,.77s.43,.72,.56,1.18,.19,.96,.19,1.51v.14c0,.52-.06,1.01-.19,1.47-.13,.45-.31,.85-.56,1.18-.24,.33-.55,.6-.91,.79-.36,.19-.77,.29-1.23,.29-.28,0-.54-.03-.78-.09-.24-.06-.46-.14-.65-.25-.12-.07-.23-.14-.33-.23s-.2-.17-.29-.27v3.53h-1.25v-10.16Zm4.83,2.59c-.08-.32-.2-.61-.36-.86-.17-.24-.38-.44-.63-.58s-.56-.22-.91-.22c-.19,0-.37,.02-.54,.07-.17,.05-.31,.11-.44,.2-.15,.09-.27,.19-.39,.32-.11,.13-.21,.27-.3,.42v3.53c.08,.14,.17,.26,.26,.38,.1,.12,.21,.22,.34,.3,.14,.09,.31,.17,.48,.22,.18,.05,.38,.08,.59,.08,.35,0,.65-.07,.9-.22,.25-.15,.46-.34,.62-.59,.16-.25,.28-.54,.36-.86,.08-.33,.12-.67,.12-1.02v-.14c0-.36-.04-.7-.12-1.02Z"/>
      <path class="cls-7" d="M37.64,116.39c-.03-.14-.05-.29-.06-.44-.13,.13-.27,.25-.42,.36-.16,.11-.33,.21-.51,.3-.19,.09-.39,.15-.6,.2-.21,.05-.44,.07-.68,.07-.39,0-.74-.06-1.05-.17-.31-.11-.58-.27-.8-.46-.22-.19-.39-.42-.51-.68s-.18-.55-.18-.86c0-.4,.08-.75,.24-1.06s.39-.56,.68-.76c.29-.2,.65-.35,1.06-.45s.88-.15,1.39-.15h1.37v-.58c0-.22-.04-.42-.12-.6-.08-.18-.2-.33-.35-.45-.15-.12-.33-.22-.55-.29-.21-.07-.46-.1-.72-.1-.25,0-.47,.03-.67,.09-.2,.06-.36,.15-.5,.25-.14,.1-.24,.23-.32,.37-.07,.14-.11,.29-.11,.44h-1.26c0-.27,.07-.53,.21-.79s.33-.49,.58-.7c.25-.2,.55-.37,.91-.5s.77-.19,1.22-.19c.42,0,.8,.05,1.16,.15,.36,.1,.67,.25,.93,.46,.26,.21,.46,.47,.61,.77,.15,.31,.22,.67,.22,1.08v3.41c0,.24,.02,.5,.07,.78,.04,.27,.11,.51,.19,.72v.11h-1.31c-.05-.09-.09-.21-.12-.36Zm-1.41-.7c.21-.06,.41-.15,.58-.25,.17-.1,.32-.22,.45-.36s.23-.27,.3-.42v-1.49h-1.17c-.43,0-.81,.04-1.14,.11-.32,.08-.58,.19-.77,.34-.14,.11-.24,.24-.31,.39-.07,.15-.1,.32-.1,.51s.03,.35,.09,.5c.06,.15,.15,.29,.27,.39,.12,.11,.28,.2,.46,.26,.19,.06,.4,.1,.64,.1s.47-.03,.69-.1Z"/>
      <path class="cls-7" d="M46.8,109.32c.25,.03,.44,.07,.57,.13l-.17,1.23c-.24-.05-.48-.09-.7-.12-.22-.02-.45-.04-.69-.04-.31,0-.59,.04-.83,.11-.25,.07-.47,.18-.65,.33-.17,.13-.31,.28-.44,.46-.12,.18-.23,.39-.31,.61v4.71h-1.26v-7.34h1.19l.05,.98v.18c.31-.4,.66-.72,1.08-.95,.42-.23,.89-.35,1.43-.35,.23,0,.47,.02,.72,.05Z"/>
      <path class="cls-7" d="M52.58,109.41h2.79v.97h-2.79v3.99c0,.29,.04,.52,.11,.71,.07,.18,.17,.33,.3,.44,.13,.11,.27,.19,.44,.24s.34,.07,.53,.07c.14,0,.28,0,.42-.02s.29-.04,.43-.06c.14-.02,.26-.05,.38-.07,.12-.02,.22-.05,.29-.06l.18,.89c-.1,.06-.23,.12-.38,.17-.15,.05-.31,.09-.49,.12-.18,.04-.36,.06-.56,.08-.2,.02-.39,.03-.59,.03-.33,0-.63-.05-.91-.14-.28-.09-.53-.24-.74-.44-.21-.2-.37-.46-.49-.78-.12-.32-.18-.7-.18-1.16v-3.99h-1.93v-.97h1.93v-1.78h1.26v1.78Z"/>
      <path class="cls-7" d="M66.27,109.41h1.15l.06,.8c.1-.13,.21-.24,.33-.34s.24-.19,.38-.26c.19-.11,.4-.19,.63-.25s.48-.08,.75-.08c.47,0,.89,.09,1.25,.28,.36,.19,.66,.44,.91,.77s.43,.72,.56,1.18,.19,.96,.19,1.51v.14c0,.52-.06,1.01-.19,1.47-.13,.45-.31,.85-.56,1.18-.24,.33-.55,.6-.91,.79-.36,.19-.77,.29-1.23,.29-.28,0-.54-.03-.78-.09-.24-.06-.46-.14-.65-.25-.12-.07-.23-.14-.33-.23s-.2-.17-.29-.27v3.53h-1.25v-10.16Zm4.83,2.59c-.08-.32-.2-.61-.36-.86-.17-.24-.38-.44-.63-.58s-.56-.22-.91-.22c-.19,0-.37,.02-.54,.07-.17,.05-.31,.11-.44,.2-.15,.09-.27,.19-.39,.32-.11,.13-.21,.27-.3,.42v3.53c.08,.14,.17,.26,.26,.38,.1,.12,.21,.22,.34,.3,.14,.09,.31,.17,.48,.22,.18,.05,.38,.08,.59,.08,.35,0,.65-.07,.9-.22,.25-.15,.46-.34,.62-.59,.16-.25,.28-.54,.36-.86,.08-.33,.12-.67,.12-1.02v-.14c0-.36-.04-.7-.12-1.02Z"/>
      <path class="cls-7" d="M78.56,106.33v9.33h2.39v1.08h-6.14v-1.08h2.5v-8.24h-2.5v-1.09h3.75Z"/>
      <path class="cls-7" d="M87.65,116.39c-.03-.14-.05-.29-.06-.44-.13,.13-.27,.25-.42,.36-.16,.11-.33,.21-.51,.3-.19,.09-.39,.15-.6,.2-.21,.05-.44,.07-.68,.07-.39,0-.74-.06-1.05-.17-.31-.11-.58-.27-.8-.46-.22-.19-.39-.42-.51-.68s-.18-.55-.18-.86c0-.4,.08-.75,.24-1.06s.39-.56,.68-.76c.29-.2,.65-.35,1.06-.45s.88-.15,1.39-.15h1.37v-.58c0-.22-.04-.42-.12-.6-.08-.18-.2-.33-.35-.45-.15-.12-.33-.22-.55-.29-.21-.07-.46-.1-.72-.1-.25,0-.47,.03-.67,.09-.2,.06-.36,.15-.5,.25-.14,.1-.24,.23-.32,.37-.07,.14-.11,.29-.11,.44h-1.26c0-.27,.07-.53,.21-.79s.33-.49,.58-.7c.25-.2,.55-.37,.91-.5s.77-.19,1.22-.19c.42,0,.8,.05,1.16,.15,.36,.1,.67,.25,.93,.46,.26,.21,.46,.47,.61,.77,.15,.31,.22,.67,.22,1.08v3.41c0,.24,.02,.5,.07,.78,.04,.27,.11,.51,.19,.72v.11h-1.31c-.05-.09-.09-.21-.12-.36Zm-1.41-.7c.21-.06,.41-.15,.58-.25,.17-.1,.32-.22,.45-.36s.23-.27,.3-.42v-1.49h-1.17c-.43,0-.81,.04-1.14,.11-.32,.08-.58,.19-.77,.34-.14,.11-.24,.24-.31,.39-.07,.15-.1,.32-.1,.51s.03,.35,.09,.5c.06,.15,.15,.29,.27,.39,.12,.11,.28,.2,.46,.26,.19,.06,.4,.1,.64,.1s.47-.03,.69-.1Z"/>
      <path class="cls-7" d="M95.07,115.76c.21-.07,.41-.17,.57-.31,.17-.13,.3-.28,.4-.45,.1-.17,.15-.36,.16-.57h1.19c0,.33-.09,.64-.25,.93-.17,.3-.39,.55-.66,.78-.28,.23-.59,.41-.95,.54-.36,.13-.73,.2-1.12,.2-.56,0-1.04-.1-1.46-.3-.42-.2-.76-.47-1.04-.81-.28-.33-.49-.72-.63-1.16-.14-.44-.21-.91-.21-1.39v-.28c0-.48,.07-.95,.21-1.39s.35-.83,.63-1.17c.28-.33,.62-.6,1.04-.8s.9-.3,1.46-.3c.43,0,.83,.07,1.2,.21s.68,.32,.95,.56c.26,.24,.47,.52,.62,.85,.15,.33,.22,.67,.22,1.04h-1.19c0-.22-.05-.43-.15-.63-.09-.2-.22-.37-.38-.52s-.35-.27-.57-.35-.46-.13-.71-.13c-.39,0-.72,.08-.98,.23-.26,.16-.48,.36-.64,.61-.16,.25-.28,.54-.35,.85-.07,.31-.1,.63-.1,.94v.28c0,.32,.04,.64,.1,.95,.07,.31,.19,.6,.35,.84,.16,.25,.37,.46,.63,.61,.26,.16,.59,.23,.99,.23,.23,0,.45-.04,.66-.11Z"/>
      <path class="cls-7" d="M101.44,116.62c-.43-.18-.8-.42-1.11-.74-.31-.32-.55-.69-.72-1.13-.17-.43-.26-.91-.26-1.42v-.29c0-.59,.1-1.12,.29-1.59s.44-.86,.76-1.19c.31-.32,.67-.57,1.07-.74,.4-.17,.81-.26,1.23-.26,.53,0,.99,.09,1.39,.28,.4,.18,.72,.43,.99,.76,.26,.33,.46,.71,.59,1.15s.19,.91,.19,1.42v.56h-5.24v.05c.03,.36,.1,.67,.21,.94s.26,.51,.46,.72c.2,.22,.44,.4,.72,.52,.28,.13,.59,.19,.93,.19,.45,0,.85-.09,1.19-.27,.35-.18,.64-.42,.87-.72l.77,.6c-.24,.37-.61,.7-1.1,.99-.49,.29-1.09,.43-1.8,.43-.52,0-.99-.09-1.42-.26Zm.54-6.18c-.23,.09-.43,.23-.61,.4-.18,.18-.33,.4-.46,.66s-.21,.56-.26,.9h3.95v-.06c0-.23-.04-.47-.13-.73-.09-.26-.21-.49-.36-.67-.15-.19-.35-.34-.58-.46-.23-.12-.51-.18-.83-.18-.25,0-.49,.05-.72,.14Z"/>
      <path class="cls-7" d="M116.29,109.41h1.13l.09,1.09c.11-.15,.23-.3,.36-.42,.13-.13,.27-.24,.41-.33,.22-.14,.45-.26,.71-.34,.26-.08,.53-.12,.81-.13,.38,0,.73,.05,1.05,.16,.31,.11,.58,.28,.8,.51,.22,.23,.39,.52,.51,.88,.12,.36,.18,.78,.18,1.27v4.66h-1.25v-4.63c0-.33-.04-.6-.11-.83-.07-.23-.18-.41-.32-.55-.14-.14-.32-.24-.53-.31-.21-.06-.44-.09-.71-.09-.23,0-.45,.03-.64,.1-.2,.07-.38,.16-.55,.27-.14,.1-.26,.21-.38,.35s-.22,.28-.3,.43v5.26h-1.25v-7.34Z"/>
      <path class="cls-7" d="M126.45,116.62c-.43-.18-.8-.42-1.11-.74-.31-.32-.55-.69-.72-1.13-.17-.43-.26-.91-.26-1.42v-.29c0-.59,.1-1.12,.29-1.59s.44-.86,.76-1.19c.31-.32,.67-.57,1.07-.74,.4-.17,.81-.26,1.23-.26,.53,0,.99,.09,1.39,.28,.4,.18,.72,.43,.99,.76,.26,.33,.46,.71,.59,1.15s.19,.91,.19,1.42v.56h-5.24v.05c.03,.36,.1,.67,.21,.94s.26,.51,.46,.72c.2,.22,.44,.4,.72,.52,.28,.13,.59,.19,.93,.19,.45,0,.85-.09,1.19-.27,.35-.18,.64-.42,.87-.72l.77,.6c-.24,.37-.61,.7-1.1,.99-.49,.29-1.09,.43-1.8,.43-.52,0-.99-.09-1.42-.26Zm.54-6.18c-.23,.09-.43,.23-.61,.4-.18,.18-.33,.4-.46,.66s-.21,.56-.26,.9h3.95v-.06c0-.23-.04-.47-.13-.73-.09-.26-.21-.49-.36-.67-.15-.19-.35-.34-.58-.46-.23-.12-.51-.18-.83-.18-.25,0-.49,.05-.72,.14Z"/>
      <path class="cls-7" d="M134.78,116.62c-.43-.18-.8-.42-1.11-.74-.31-.32-.55-.69-.72-1.13-.17-.43-.26-.91-.26-1.42v-.29c0-.59,.1-1.12,.29-1.59s.44-.86,.76-1.19c.31-.32,.67-.57,1.07-.74,.4-.17,.81-.26,1.23-.26,.53,0,.99,.09,1.39,.28,.4,.18,.72,.43,.99,.76,.26,.33,.46,.71,.59,1.15s.19,.91,.19,1.42v.56h-5.24v.05c.03,.36,.1,.67,.21,.94s.26,.51,.46,.72c.2,.22,.44,.4,.72,.52,.28,.13,.59,.19,.93,.19,.45,0,.85-.09,1.19-.27,.35-.18,.64-.42,.87-.72l.77,.6c-.24,.37-.61,.7-1.1,.99-.49,.29-1.09,.43-1.8,.43-.52,0-.99-.09-1.42-.26Zm.54-6.18c-.23,.09-.43,.23-.61,.4-.18,.18-.33,.4-.46,.66s-.21,.56-.26,.9h3.95v-.06c0-.23-.04-.47-.13-.73-.09-.26-.21-.49-.36-.67-.15-.19-.35-.34-.58-.46-.23-.12-.51-.18-.83-.18-.25,0-.49,.05-.72,.14Z"/>
      <path class="cls-7" d="M141.27,111.51c.14-.46,.34-.85,.59-1.18,.25-.33,.56-.59,.92-.77s.77-.28,1.21-.28,.82,.07,1.15,.22c.33,.15,.61,.36,.85,.64v-3.8h1.25v10.42h-1.15l-.05-.77c-.24,.3-.54,.52-.88,.68-.34,.15-.73,.23-1.19,.23s-.84-.09-1.2-.29c-.36-.19-.67-.45-.92-.79-.25-.33-.45-.73-.59-1.18-.14-.46-.21-.94-.21-1.47v-.14c0-.55,.07-1.05,.21-1.51Zm1.16,2.67c.08,.32,.2,.6,.36,.85,.16,.24,.36,.44,.61,.58s.55,.21,.9,.21c.42,0,.77-.1,1.04-.29,.28-.19,.5-.45,.66-.77v-3.4c-.16-.3-.38-.54-.66-.74-.28-.19-.62-.29-1.03-.29-.35,0-.65,.07-.91,.22s-.46,.34-.61,.58c-.16,.25-.28,.54-.36,.86-.08,.32-.12,.66-.12,1.02v.14c0,.36,.04,.7,.12,1.02Z"/>
      <path class="cls-7" d="M162.67,116.39c-.03-.14-.05-.29-.06-.44-.13,.13-.27,.25-.42,.36-.16,.11-.33,.21-.51,.3-.19,.09-.39,.15-.61,.2-.21,.05-.44,.07-.68,.07-.39,0-.74-.06-1.05-.17-.31-.11-.58-.27-.8-.46-.22-.19-.39-.42-.51-.68-.12-.26-.18-.55-.18-.86,0-.4,.08-.75,.24-1.06,.16-.3,.39-.56,.68-.76,.29-.2,.65-.35,1.06-.45s.88-.15,1.39-.15h1.37v-.58c0-.22-.04-.42-.12-.6-.08-.18-.2-.33-.35-.45-.15-.12-.33-.22-.55-.29-.21-.07-.46-.1-.72-.1-.25,0-.47,.03-.67,.09-.2,.06-.36,.15-.5,.25-.14,.1-.24,.23-.32,.37-.07,.14-.11,.29-.11,.44h-1.26c0-.27,.07-.53,.21-.79,.13-.26,.33-.49,.58-.7,.25-.2,.55-.37,.91-.5s.77-.19,1.22-.19c.42,0,.8,.05,1.16,.15,.36,.1,.67,.25,.93,.46,.26,.21,.46,.47,.61,.77,.15,.31,.22,.67,.22,1.08v3.41c0,.24,.02,.5,.07,.78,.05,.27,.11,.51,.19,.72v.11h-1.31c-.05-.09-.09-.21-.12-.36Zm-1.41-.7c.21-.06,.41-.15,.58-.25,.17-.1,.32-.22,.45-.36,.12-.13,.22-.27,.3-.42v-1.49h-1.17c-.43,0-.81,.04-1.14,.11-.32,.08-.58,.19-.77,.34-.13,.11-.24,.24-.31,.39-.07,.15-.1,.32-.1,.51s.03,.35,.09,.5c.06,.15,.15,.29,.28,.39,.12,.11,.28,.2,.46,.26,.19,.06,.4,.1,.64,.1s.47-.03,.69-.1Z"/>
      <path class="cls-7" d="M170.25,106.33v9.33h2.39v1.08h-6.14v-1.08h2.5v-8.24h-2.5v-1.09h3.75Z"/>
      <path class="cls-7" d="M178.59,106.33v9.33h2.39v1.08h-6.14v-1.08h2.5v-8.24h-2.5v-1.09h3.75Z"/>
      <path class="cls-7" d="M193.13,116.62c-.43-.18-.8-.42-1.11-.74s-.55-.69-.72-1.13c-.17-.43-.26-.91-.26-1.42v-.29c0-.59,.09-1.12,.28-1.59,.19-.47,.44-.86,.76-1.19,.31-.32,.67-.57,1.07-.74s.81-.26,1.23-.26c.53,0,.99,.09,1.39,.28,.4,.18,.72,.43,.99,.76,.26,.33,.46,.71,.59,1.15s.19,.91,.19,1.42v.56h-5.24v.05c.03,.36,.1,.67,.21,.94,.11,.27,.26,.51,.46,.72,.2,.22,.44,.4,.72,.52,.28,.13,.59,.19,.93,.19,.45,0,.84-.09,1.19-.27,.35-.18,.64-.42,.87-.72l.77,.6c-.24,.37-.61,.7-1.1,.99s-1.09,.43-1.8,.43c-.52,0-.99-.09-1.42-.26Zm.54-6.18c-.23,.09-.43,.23-.61,.4-.18,.18-.33,.4-.46,.66-.12,.26-.21,.56-.26,.9h3.95v-.06c0-.23-.04-.47-.13-.73s-.21-.49-.36-.67c-.15-.19-.35-.34-.58-.46-.23-.12-.51-.18-.83-.18-.25,0-.49,.05-.72,.14Z"/>
      <path class="cls-7" d="M204.35,116.39c-.03-.14-.05-.29-.06-.44-.13,.13-.27,.25-.42,.36-.16,.11-.33,.21-.51,.3-.19,.09-.39,.15-.6,.2-.21,.05-.44,.07-.68,.07-.39,0-.74-.06-1.05-.17-.31-.11-.58-.27-.8-.46-.22-.19-.39-.42-.51-.68-.12-.26-.18-.55-.18-.86,0-.4,.08-.75,.24-1.06s.39-.56,.68-.76c.29-.2,.65-.35,1.06-.45s.88-.15,1.39-.15h1.37v-.58c0-.22-.04-.42-.12-.6-.08-.18-.2-.33-.35-.45-.15-.12-.33-.22-.55-.29-.21-.07-.46-.1-.72-.1-.25,0-.47,.03-.67,.09-.2,.06-.36,.15-.5,.25-.14,.1-.24,.23-.32,.37-.08,.14-.11,.29-.11,.44h-1.26c0-.27,.07-.53,.21-.79s.33-.49,.58-.7c.25-.2,.55-.37,.91-.5s.77-.19,1.22-.19c.42,0,.8,.05,1.16,.15,.36,.1,.67,.25,.93,.46,.26,.21,.46,.47,.61,.77s.22,.67,.22,1.08v3.41c0,.24,.02,.5,.07,.78,.05,.27,.11,.51,.19,.72v.11h-1.31c-.05-.09-.09-.21-.12-.36Zm-1.41-.7c.21-.06,.41-.15,.58-.25,.17-.1,.32-.22,.45-.36,.13-.13,.23-.27,.3-.42v-1.49h-1.17c-.43,0-.81,.04-1.14,.11-.32,.08-.58,.19-.77,.34-.14,.11-.24,.24-.31,.39s-.11,.32-.11,.51,.03,.35,.09,.5c.06,.15,.15,.29,.27,.39,.12,.11,.28,.2,.46,.26,.18,.06,.4,.1,.64,.1s.47-.03,.69-.1Z"/>
      <path class="cls-7" d="M211.77,115.76c.21-.07,.41-.17,.57-.31,.17-.13,.3-.28,.4-.45,.1-.17,.16-.36,.16-.57h1.19c0,.33-.09,.64-.25,.93-.17,.3-.39,.55-.66,.78-.28,.23-.59,.41-.95,.54-.36,.13-.73,.2-1.12,.2-.56,0-1.04-.1-1.46-.3-.42-.2-.76-.47-1.04-.81-.28-.33-.49-.72-.63-1.16-.14-.44-.21-.91-.21-1.39v-.28c0-.48,.07-.95,.21-1.39,.14-.44,.35-.83,.63-1.17,.28-.33,.62-.6,1.04-.8s.9-.3,1.46-.3c.43,0,.83,.07,1.2,.21s.68,.32,.95,.56c.26,.24,.47,.52,.62,.85,.15,.33,.22,.67,.22,1.04h-1.19c0-.22-.05-.43-.15-.63-.09-.2-.22-.37-.38-.52s-.35-.27-.57-.35-.46-.13-.71-.13c-.39,0-.72,.08-.98,.23-.26,.16-.48,.36-.64,.61-.16,.25-.28,.54-.35,.85-.07,.31-.11,.63-.11,.94v.28c0,.32,.04,.64,.11,.95,.07,.31,.19,.6,.35,.84,.16,.25,.37,.46,.63,.61,.26,.16,.59,.23,.99,.23,.23,0,.45-.04,.66-.11Z"/>
      <path class="cls-7" d="M217.91,110.09c.12-.12,.25-.23,.39-.33,.22-.16,.46-.28,.71-.36,.26-.08,.54-.12,.83-.13,.38,0,.73,.06,1.05,.17,.31,.11,.58,.28,.8,.52s.39,.53,.51,.89c.12,.36,.18,.79,.18,1.28v4.62h-1.25v-4.63c0-.29-.03-.54-.1-.76-.07-.22-.17-.4-.3-.55-.14-.16-.32-.28-.53-.36s-.46-.12-.73-.11c-.23,0-.44,.03-.64,.09-.2,.06-.39,.15-.56,.27-.14,.09-.26,.2-.38,.32s-.22,.25-.31,.4v5.33h-1.25v-10.42h1.25v4.17c.1-.15,.21-.29,.33-.41Z"/>
      <path class="cls-7" d="M237.69,116.39c-.03-.14-.05-.29-.06-.44-.13,.13-.27,.25-.42,.36-.16,.11-.33,.21-.51,.3-.19,.09-.39,.15-.6,.2-.21,.05-.44,.07-.68,.07-.39,0-.74-.06-1.05-.17-.31-.11-.58-.27-.8-.46-.22-.19-.39-.42-.51-.68-.12-.26-.18-.55-.18-.86,0-.4,.08-.75,.24-1.06s.39-.56,.68-.76c.29-.2,.65-.35,1.06-.45s.88-.15,1.39-.15h1.37v-.58c0-.22-.04-.42-.12-.6-.08-.18-.2-.33-.35-.45-.15-.12-.33-.22-.55-.29-.21-.07-.46-.1-.72-.1-.25,0-.47,.03-.67,.09-.2,.06-.36,.15-.5,.25-.14,.1-.24,.23-.32,.37-.08,.14-.11,.29-.11,.44h-1.26c0-.27,.07-.53,.21-.79s.33-.49,.58-.7c.25-.2,.55-.37,.91-.5s.77-.19,1.22-.19c.42,0,.8,.05,1.16,.15,.36,.1,.67,.25,.93,.46,.26,.21,.46,.47,.61,.77s.22,.67,.22,1.08v3.41c0,.24,.02,.5,.07,.78,.05,.27,.11,.51,.19,.72v.11h-1.31c-.05-.09-.09-.21-.12-.36Zm-1.41-.7c.21-.06,.41-.15,.58-.25,.17-.1,.32-.22,.45-.36,.13-.13,.23-.27,.3-.42v-1.49h-1.17c-.43,0-.81,.04-1.14,.11-.32,.08-.58,.19-.77,.34-.14,.11-.24,.24-.31,.39s-.11,.32-.11,.51,.03,.35,.09,.5c.06,.15,.15,.29,.27,.39,.12,.11,.28,.2,.46,.26,.18,.06,.4,.1,.64,.1s.47-.03,.69-.1Z"/>
      <path class="cls-7" d="M247.47,114.09c-.05,.3-.12,.57-.21,.83-.12,.34-.28,.64-.48,.91-.2,.27-.43,.49-.71,.67-.2,.12-.42,.22-.65,.29-.24,.07-.49,.1-.77,.1-.32,0-.61-.04-.87-.12s-.49-.19-.7-.33c-.1-.07-.19-.15-.28-.24-.09-.08-.18-.18-.26-.28l-.06,.83h-1.15v-10.42h1.25v3.87c.1-.13,.22-.25,.35-.36,.13-.11,.26-.2,.41-.27,.18-.09,.38-.17,.6-.22,.22-.05,.45-.08,.71-.08,.32,0,.61,.04,.88,.13,.27,.09,.51,.21,.73,.36,.19,.15,.37,.32,.52,.53,.15,.21,.29,.43,.41,.69,.12,.28,.21,.6,.28,.95,.06,.35,.09,.71,.09,1.1v.14c0,.32-.02,.63-.07,.93Zm-1.23-1.74c-.03-.22-.07-.43-.13-.62-.08-.24-.19-.46-.32-.66-.13-.2-.29-.36-.48-.47-.13-.08-.28-.14-.44-.19-.16-.04-.34-.07-.54-.07-.22,0-.42,.03-.6,.08s-.34,.13-.48,.23c-.14,.1-.27,.23-.38,.36-.11,.14-.21,.29-.28,.45v3.21c.08,.16,.18,.31,.29,.45,.11,.14,.24,.26,.38,.36,.14,.1,.31,.18,.49,.24s.38,.08,.6,.08,.4-.03,.57-.08c.17-.05,.33-.13,.46-.23,.18-.13,.33-.29,.45-.48s.22-.41,.29-.65c.06-.18,.1-.38,.13-.58,.03-.21,.04-.42,.04-.64v-.14c0-.23-.01-.46-.04-.67Z"/>
      <path class="cls-7" d="M249.54,111.54c.15-.46,.38-.85,.67-1.18,.29-.33,.63-.6,1.04-.79,.41-.19,.88-.29,1.39-.29s.99,.1,1.4,.29c.41,.19,.76,.46,1.05,.79,.28,.33,.5,.73,.66,1.18,.15,.45,.23,.95,.23,1.47v.15c0,.53-.08,1.02-.23,1.47-.15,.45-.37,.85-.66,1.18-.29,.33-.64,.6-1.05,.79-.41,.19-.88,.29-1.39,.29s-.99-.09-1.4-.29c-.41-.19-.76-.45-1.05-.79-.29-.33-.51-.73-.67-1.18-.15-.45-.23-.94-.23-1.47v-.15c0-.53,.08-1.02,.23-1.47Zm1.15,2.66c.09,.33,.22,.62,.39,.87,.17,.25,.39,.45,.65,.59,.26,.14,.57,.22,.92,.22s.65-.07,.91-.22c.26-.14,.48-.34,.66-.59,.17-.25,.3-.54,.39-.87,.08-.33,.13-.67,.13-1.03v-.15c0-.36-.04-.7-.13-1.03s-.22-.62-.39-.87c-.18-.25-.39-.45-.65-.59-.26-.15-.56-.22-.91-.22s-.65,.07-.91,.22c-.26,.15-.47,.34-.64,.59-.18,.25-.31,.54-.39,.87s-.13,.67-.13,1.03v.15c0,.36,.04,.71,.13,1.03Z"/>
      <path class="cls-7" d="M262.76,115.74c-.24,.36-.55,.64-.92,.84s-.79,.3-1.27,.3c-.38,0-.73-.06-1.04-.18-.31-.12-.58-.31-.8-.56-.22-.25-.39-.58-.51-.97-.12-.39-.18-.86-.18-1.41v-4.36h1.25v4.38c0,.4,.03,.73,.09,.99s.16,.47,.29,.62c.13,.16,.28,.27,.46,.33,.18,.06,.39,.09,.63,.09,.28,0,.53-.03,.75-.1s.41-.16,.58-.28c.14-.09,.25-.21,.36-.34,.1-.13,.19-.28,.25-.44v-5.26h1.26v7.34h-1.14l-.07-1.01Z"/>
      <path class="cls-7" d="M269.3,109.41h2.79v.97h-2.79v3.99c0,.29,.04,.52,.11,.71,.07,.18,.17,.33,.3,.44,.13,.11,.27,.19,.44,.24s.34,.07,.53,.07c.14,0,.28,0,.42-.02s.29-.04,.43-.06c.13-.02,.26-.05,.38-.07,.12-.02,.22-.05,.29-.06l.18,.89c-.1,.06-.23,.12-.38,.17-.15,.05-.31,.09-.49,.12-.18,.04-.36,.06-.56,.08-.2,.02-.39,.03-.59,.03-.33,0-.63-.05-.91-.14-.28-.09-.53-.24-.74-.44-.21-.2-.37-.46-.49-.78-.12-.32-.18-.7-.18-1.16v-3.99h-1.93v-.97h1.93v-1.78h1.26v1.78Z"/>
    </g>
    <g id="Text" class="c6">
      <path class="cls-4" d="M24.59,76.07h1.15l.06,.8c.1-.13,.21-.24,.33-.34,.12-.1,.24-.19,.38-.26,.19-.11,.4-.19,.63-.25,.23-.06,.48-.08,.75-.08,.47,0,.89,.09,1.25,.28,.36,.19,.66,.44,.91,.77s.43,.72,.56,1.18,.19,.96,.19,1.51v.14c0,.52-.06,1.01-.19,1.47-.13,.45-.31,.85-.56,1.18-.24,.33-.55,.6-.91,.79-.36,.19-.77,.29-1.23,.29-.28,0-.54-.03-.78-.09s-.46-.14-.65-.25c-.12-.07-.23-.14-.33-.23s-.2-.18-.29-.27v3.53h-1.25v-10.16Zm4.83,2.59c-.08-.32-.2-.61-.36-.86-.17-.24-.38-.44-.63-.58-.25-.14-.56-.22-.91-.22-.19,0-.37,.02-.54,.07-.17,.05-.31,.11-.44,.2-.15,.09-.27,.19-.39,.32-.11,.13-.21,.27-.3,.42v3.53c.08,.14,.17,.26,.26,.38,.1,.12,.21,.22,.34,.3,.14,.1,.31,.17,.48,.22s.38,.08,.59,.08c.35,0,.65-.07,.9-.22s.46-.34,.62-.59c.16-.25,.28-.54,.36-.86,.08-.33,.12-.67,.12-1.02v-.14c0-.36-.04-.7-.12-1.02Z"/>
      <path class="cls-4" d="M38.47,75.99c.25,.03,.44,.07,.57,.13l-.17,1.23c-.24-.05-.48-.09-.7-.12s-.45-.04-.69-.04c-.31,0-.59,.04-.83,.11s-.47,.18-.65,.33c-.17,.13-.31,.28-.44,.46-.12,.18-.23,.39-.31,.61v4.71h-1.26v-7.34h1.19l.05,.98v.18c.31-.4,.66-.72,1.08-.95,.42-.23,.89-.35,1.43-.35,.23,0,.47,.02,.72,.05Z"/>
      <path class="cls-4" d="M41.15,78.2c.15-.45,.38-.85,.66-1.18,.29-.33,.63-.6,1.04-.79,.41-.19,.88-.29,1.39-.29s.99,.1,1.4,.29c.41,.19,.77,.46,1.05,.79,.29,.33,.5,.73,.66,1.18,.15,.45,.23,.95,.23,1.48v.15c0,.53-.08,1.02-.23,1.47-.15,.45-.37,.85-.66,1.18-.29,.33-.64,.6-1.05,.79s-.88,.29-1.39,.29-.99-.1-1.4-.29c-.41-.19-.76-.45-1.05-.79-.29-.33-.51-.73-.66-1.18s-.23-.94-.23-1.47v-.15c0-.53,.08-1.02,.23-1.48Zm1.15,2.66c.09,.33,.22,.62,.39,.86,.17,.25,.39,.45,.65,.59,.26,.14,.57,.22,.92,.22s.65-.07,.91-.22c.26-.15,.48-.34,.65-.59,.17-.25,.3-.54,.39-.86,.09-.33,.13-.67,.13-1.03v-.15c0-.36-.04-.7-.13-1.03-.09-.33-.22-.62-.39-.86-.18-.25-.4-.45-.65-.59-.26-.15-.56-.22-.91-.22s-.65,.07-.91,.22c-.26,.15-.47,.34-.64,.59-.18,.25-.31,.54-.39,.86s-.13,.67-.13,1.03v.15c0,.36,.04,.71,.13,1.03Z"/>
      <path class="cls-4" d="M49.58,78.17c.13-.46,.33-.85,.58-1.18s.56-.59,.92-.77c.36-.19,.77-.28,1.23-.28,.29,0,.56,.03,.81,.1s.47,.17,.67,.3c.11,.07,.21,.15,.31,.24,.1,.09,.19,.19,.27,.3l.06-.8h1.14v7.18c0,.48-.08,.91-.23,1.29-.15,.38-.36,.69-.63,.96-.28,.26-.6,.46-.98,.6-.38,.14-.8,.2-1.26,.2-.19,0-.41-.02-.65-.06s-.49-.11-.74-.21c-.25-.1-.5-.22-.73-.39-.23-.16-.43-.36-.6-.6l.65-.75c.15,.19,.31,.34,.48,.47,.16,.13,.33,.23,.5,.31,.17,.08,.33,.13,.5,.17,.17,.03,.33,.05,.5,.05,.3,0,.57-.04,.81-.13s.45-.21,.62-.38c.17-.16,.3-.37,.39-.61s.14-.52,.14-.84v-.63c-.1,.11-.2,.21-.3,.3-.11,.09-.22,.17-.34,.24-.19,.1-.4,.18-.63,.24-.23,.06-.48,.08-.75,.08-.45,0-.85-.1-1.21-.29s-.67-.45-.92-.79c-.25-.33-.45-.73-.58-1.18-.14-.45-.2-.94-.2-1.47v-.14c0-.55,.07-1.05,.2-1.51Zm1.17,2.67c.07,.32,.19,.6,.36,.85,.16,.24,.36,.44,.61,.58,.25,.14,.55,.21,.9,.21,.22,0,.41-.03,.59-.08,.17-.05,.33-.13,.47-.22,.14-.1,.26-.21,.37-.34,.11-.13,.2-.28,.29-.43v-3.36c-.08-.15-.18-.29-.29-.42-.11-.13-.23-.24-.37-.33-.14-.09-.3-.16-.47-.21-.17-.05-.36-.08-.57-.08-.35,0-.65,.07-.91,.22-.25,.15-.46,.34-.61,.58-.16,.25-.28,.53-.36,.86-.07,.32-.11,.66-.11,1.02v.14c0,.36,.04,.7,.11,1.02Z"/>
      <path class="cls-4" d="M63.47,75.99c.25,.03,.44,.07,.57,.13l-.17,1.23c-.24-.05-.48-.09-.7-.12s-.45-.04-.69-.04c-.31,0-.59,.04-.83,.11s-.47,.18-.65,.33c-.17,.13-.31,.28-.44,.46-.12,.18-.23,.39-.31,.61v4.71h-1.26v-7.34h1.19l.05,.98v.18c.31-.4,.66-.72,1.08-.95,.42-.23,.89-.35,1.43-.35,.23,0,.47,.02,.72,.05Z"/>
      <path class="cls-4" d="M70.98,83.06c-.03-.14-.05-.29-.06-.44-.13,.13-.27,.25-.42,.36-.16,.11-.33,.21-.51,.3-.19,.09-.39,.15-.6,.2-.21,.05-.44,.07-.68,.07-.39,0-.74-.06-1.05-.17-.31-.11-.58-.27-.8-.46-.22-.19-.39-.42-.51-.68s-.18-.55-.18-.86c0-.4,.08-.76,.24-1.06s.39-.56,.68-.76c.29-.2,.65-.35,1.06-.45,.41-.1,.88-.15,1.39-.15h1.37v-.58c0-.22-.04-.42-.12-.6-.08-.18-.2-.33-.35-.45-.15-.12-.33-.22-.55-.28-.21-.07-.46-.1-.72-.1-.25,0-.47,.03-.67,.1s-.36,.15-.5,.25-.24,.23-.32,.37c-.07,.14-.11,.29-.11,.44h-1.26c0-.27,.07-.53,.21-.79,.13-.26,.33-.49,.58-.7,.25-.2,.55-.37,.91-.5s.77-.19,1.22-.19c.42,0,.8,.05,1.16,.15,.36,.1,.67,.25,.93,.46,.26,.21,.46,.47,.61,.77,.15,.31,.22,.67,.22,1.08v3.41c0,.24,.02,.5,.07,.78,.04,.27,.11,.51,.19,.72v.11h-1.31c-.05-.09-.09-.21-.12-.36Zm-1.41-.7c.21-.06,.41-.15,.58-.25,.17-.1,.32-.22,.45-.36s.23-.27,.3-.42v-1.49h-1.17c-.43,0-.81,.04-1.14,.11-.32,.07-.58,.19-.77,.34-.14,.11-.24,.24-.31,.39-.07,.15-.1,.32-.1,.51s.03,.35,.09,.5,.15,.28,.27,.39c.12,.11,.28,.2,.46,.26s.4,.09,.64,.09,.47-.03,.69-.09Z"/>
      <path class="cls-4" d="M75.22,76.77c.15-.26,.34-.46,.59-.6,.24-.14,.53-.22,.88-.22,.19,0,.37,.02,.53,.06,.16,.04,.29,.1,.41,.19,.09,.06,.16,.14,.23,.23,.07,.09,.13,.19,.18,.31,.06-.1,.14-.2,.22-.29s.18-.17,.28-.24c.13-.08,.27-.14,.42-.18,.16-.05,.33-.07,.51-.07,.25,0,.48,.04,.69,.11,.2,.07,.38,.18,.52,.33,.15,.16,.27,.37,.35,.63,.08,.26,.12,.57,.12,.92v5.48h-1.19v-5.49c0-.15-.02-.29-.05-.41-.04-.12-.09-.21-.16-.29-.07-.07-.16-.13-.27-.16-.11-.04-.23-.05-.37-.05-.15,0-.28,.02-.39,.06-.11,.04-.2,.09-.27,.16-.07,.07-.13,.15-.17,.25-.04,.09-.07,.2-.08,.31v5.63h-1.19v-5.5c0-.15-.02-.29-.05-.41-.03-.12-.09-.21-.16-.29-.07-.07-.15-.13-.25-.16-.1-.03-.22-.05-.36-.05-.15,0-.28,.02-.39,.05-.11,.03-.2,.08-.28,.15-.06,.05-.11,.11-.15,.17-.04,.06-.08,.13-.1,.2v5.84h-1.19v-7.34h1.13l.03,.69Z"/>
      <path class="cls-4" d="M95.99,83.06c-.03-.14-.05-.29-.06-.44-.13,.13-.27,.25-.42,.36-.16,.11-.33,.21-.51,.3-.19,.09-.39,.15-.6,.2-.21,.05-.44,.07-.68,.07-.39,0-.74-.06-1.05-.17-.31-.11-.58-.27-.8-.46-.22-.19-.39-.42-.51-.68s-.18-.55-.18-.86c0-.4,.08-.76,.24-1.06s.39-.56,.68-.76c.29-.2,.65-.35,1.06-.45,.41-.1,.88-.15,1.39-.15h1.37v-.58c0-.22-.04-.42-.12-.6-.08-.18-.2-.33-.35-.45-.15-.12-.33-.22-.55-.28-.21-.07-.46-.1-.72-.1-.25,0-.47,.03-.67,.1s-.36,.15-.5,.25-.24,.23-.32,.37c-.07,.14-.11,.29-.11,.44h-1.26c0-.27,.07-.53,.21-.79,.13-.26,.33-.49,.58-.7,.25-.2,.55-.37,.91-.5s.77-.19,1.22-.19c.42,0,.8,.05,1.16,.15,.36,.1,.67,.25,.93,.46,.26,.21,.46,.47,.61,.77,.15,.31,.22,.67,.22,1.08v3.41c0,.24,.02,.5,.07,.78,.04,.27,.11,.51,.19,.72v.11h-1.31c-.05-.09-.09-.21-.12-.36Zm-1.41-.7c.21-.06,.41-.15,.58-.25,.17-.1,.32-.22,.45-.36s.23-.27,.3-.42v-1.49h-1.17c-.43,0-.81,.04-1.14,.11-.32,.07-.58,.19-.77,.34-.14,.11-.24,.24-.31,.39-.07,.15-.1,.32-.1,.51s.03,.35,.09,.5,.15,.28,.27,.39c.12,.11,.28,.2,.46,.26s.4,.09,.64,.09,.47-.03,.69-.09Z"/>
      <path class="cls-4" d="M103.57,72.99v9.33h2.39v1.08h-6.14v-1.08h2.5v-8.24h-2.5v-1.09h3.75Z"/>
      <path class="cls-4" d="M112.74,81.06c-.06-.12-.16-.23-.3-.33-.14-.1-.33-.19-.56-.27-.23-.08-.52-.16-.86-.23-.42-.09-.8-.19-1.15-.31-.35-.12-.64-.27-.89-.44-.25-.17-.44-.37-.58-.59-.14-.23-.2-.49-.2-.8s.07-.58,.21-.84c.14-.26,.34-.49,.59-.68,.25-.19,.55-.35,.91-.46,.35-.11,.74-.17,1.16-.17,.45,0,.86,.06,1.22,.18s.67,.28,.92,.49c.25,.21,.45,.45,.59,.73,.14,.28,.21,.58,.21,.9h-1.25c0-.16-.04-.31-.12-.46-.08-.15-.19-.29-.34-.4-.15-.12-.32-.21-.53-.29-.21-.07-.44-.11-.69-.11s-.5,.03-.7,.09c-.2,.06-.37,.14-.5,.24-.14,.1-.24,.21-.31,.35-.07,.13-.1,.27-.1,.41s.03,.27,.08,.39c.05,.11,.15,.21,.29,.31,.13,.09,.31,.17,.53,.24s.51,.14,.85,.21c.45,.1,.86,.2,1.21,.33,.36,.12,.66,.27,.9,.44,.24,.18,.43,.38,.56,.61s.19,.5,.19,.8c0,.33-.07,.62-.22,.89-.15,.27-.35,.5-.61,.68-.26,.19-.58,.34-.94,.44-.37,.1-.77,.16-1.2,.16-.5,0-.94-.07-1.33-.2-.39-.13-.72-.31-.98-.53-.27-.22-.48-.47-.62-.76-.14-.29-.21-.59-.21-.9h1.25c.02,.26,.09,.48,.21,.65s.27,.32,.45,.43c.18,.11,.37,.19,.59,.23,.22,.05,.43,.07,.64,.07,.33,0,.63-.04,.88-.12,.25-.08,.44-.19,.58-.33,.09-.09,.15-.18,.2-.28,.05-.1,.07-.21,.07-.33,0-.15-.03-.28-.09-.4Z"/>
      <path class="cls-4" d="M116.17,78.2c.15-.45,.38-.85,.66-1.18,.29-.33,.63-.6,1.04-.79,.41-.19,.88-.29,1.39-.29s.99,.1,1.4,.29c.41,.19,.77,.46,1.05,.79,.29,.33,.5,.73,.66,1.18,.15,.45,.23,.95,.23,1.48v.15c0,.53-.08,1.02-.23,1.47-.15,.45-.37,.85-.66,1.18-.29,.33-.64,.6-1.05,.79s-.88,.29-1.39,.29-.99-.1-1.4-.29c-.41-.19-.76-.45-1.05-.79-.29-.33-.51-.73-.66-1.18s-.23-.94-.23-1.47v-.15c0-.53,.08-1.02,.23-1.48Zm1.15,2.66c.09,.33,.22,.62,.39,.86,.17,.25,.39,.45,.65,.59,.26,.14,.57,.22,.92,.22s.65-.07,.91-.22c.26-.15,.48-.34,.65-.59,.17-.25,.3-.54,.39-.86,.09-.33,.13-.67,.13-1.03v-.15c0-.36-.04-.7-.13-1.03-.09-.33-.22-.62-.39-.86-.18-.25-.4-.45-.65-.59-.26-.15-.56-.22-.91-.22s-.65,.07-.91,.22c-.26,.15-.47,.34-.64,.59-.18,.25-.31,.54-.39,.86s-.13,.67-.13,1.03v.15c0,.36,.04,.71,.13,1.03Z"/>
      <path class="cls-4" d="M134.55,76.76c.12-.12,.25-.23,.39-.33,.22-.16,.46-.28,.72-.36,.26-.08,.54-.12,.83-.13,.38,0,.73,.06,1.05,.17s.58,.28,.8,.52c.22,.23,.39,.53,.51,.89,.12,.36,.18,.79,.18,1.28v4.62h-1.25v-4.63c0-.29-.03-.54-.1-.76s-.17-.4-.3-.55c-.14-.16-.32-.28-.53-.36s-.46-.12-.73-.11c-.23,0-.44,.03-.64,.09-.2,.06-.39,.15-.56,.27-.14,.09-.26,.2-.38,.32-.12,.12-.22,.25-.31,.4v5.33h-1.25v-10.42h1.25v4.17c.1-.15,.21-.29,.33-.41Z"/>
      <path class="cls-4" d="M187.68,83.06c-.03-.14-.05-.29-.06-.44-.13,.13-.27,.25-.42,.36-.16,.11-.33,.21-.51,.3-.19,.09-.39,.15-.6,.2-.21,.05-.44,.07-.68,.07-.39,0-.74-.06-1.05-.17-.31-.11-.58-.27-.8-.46-.22-.19-.39-.42-.51-.68-.12-.26-.18-.55-.18-.86,0-.4,.08-.76,.24-1.06s.39-.56,.68-.76c.29-.2,.65-.35,1.06-.45,.41-.1,.88-.15,1.39-.15h1.37v-.58c0-.22-.04-.42-.12-.6s-.2-.33-.35-.45c-.15-.12-.33-.22-.55-.28s-.46-.1-.72-.1c-.25,0-.47,.03-.67,.1s-.36,.15-.5,.25-.24,.23-.32,.37c-.08,.14-.11,.29-.11,.44h-1.26c0-.27,.07-.53,.21-.79,.13-.26,.33-.49,.58-.7,.25-.2,.55-.37,.91-.5s.77-.19,1.22-.19c.42,0,.8,.05,1.16,.15,.36,.1,.67,.25,.93,.46,.26,.21,.46,.47,.61,.77,.15,.31,.22,.67,.22,1.08v3.41c0,.24,.02,.5,.07,.78,.05,.27,.11,.51,.19,.72v.11h-1.31c-.05-.09-.09-.21-.12-.36Zm-1.41-.7c.21-.06,.41-.15,.58-.25,.17-.1,.32-.22,.45-.36,.13-.13,.23-.27,.3-.42v-1.49h-1.17c-.43,0-.81,.04-1.14,.11s-.58,.19-.77,.34c-.14,.11-.24,.24-.31,.39s-.11,.32-.11,.51,.03,.35,.09,.5c.06,.15,.15,.28,.27,.39,.12,.11,.28,.2,.46,.26,.18,.06,.4,.09,.64,.09s.47-.03,.69-.09Z"/>
      <path class="cls-4" d="M191.31,76.07h1.13l.09,1.08c.11-.15,.23-.29,.36-.42s.27-.24,.41-.34c.22-.14,.45-.26,.71-.34,.26-.08,.53-.12,.81-.13,.38,0,.73,.05,1.05,.16s.58,.28,.8,.51,.39,.52,.51,.88c.12,.35,.18,.78,.18,1.26v4.66h-1.25v-4.63c0-.33-.04-.6-.11-.83s-.18-.41-.32-.55c-.14-.14-.32-.24-.53-.31s-.44-.09-.71-.09c-.23,0-.45,.03-.64,.1-.2,.07-.38,.15-.55,.27-.14,.1-.26,.21-.38,.35-.12,.13-.22,.28-.3,.43v5.26h-1.25v-7.34Z"/>
      <path class="cls-4" d="M199.62,78.17c.14-.46,.34-.85,.59-1.18,.25-.33,.56-.59,.92-.77,.36-.19,.77-.28,1.21-.28s.82,.07,1.15,.22,.61,.36,.85,.64v-3.81h1.25v10.42h-1.15l-.05-.77c-.24,.3-.54,.52-.88,.68-.34,.15-.73,.23-1.19,.23s-.84-.1-1.2-.29-.67-.45-.92-.79c-.25-.33-.45-.73-.59-1.18-.14-.45-.21-.94-.21-1.47v-.14c0-.55,.07-1.05,.21-1.51Zm1.16,2.67c.08,.32,.2,.6,.36,.85,.16,.24,.36,.44,.61,.58,.25,.14,.55,.21,.9,.21,.42,0,.77-.09,1.04-.28,.28-.19,.5-.45,.66-.77v-3.4c-.16-.3-.38-.54-.66-.74-.28-.19-.62-.29-1.03-.29-.35,0-.65,.07-.91,.22-.25,.15-.46,.34-.61,.58-.16,.25-.28,.53-.36,.86-.08,.32-.12,.66-.12,1.02v.14c0,.36,.04,.7,.12,1.02Z"/>
      <path class="cls-4" d="M219.29,76.07h2.79v.97h-2.79v3.99c0,.29,.04,.52,.11,.71,.07,.19,.17,.33,.3,.44,.13,.11,.27,.19,.44,.24,.17,.05,.34,.07,.53,.07,.14,0,.28,0,.42-.02,.14-.02,.29-.03,.43-.06,.13-.02,.26-.05,.38-.07,.12-.02,.22-.05,.29-.06l.18,.89c-.1,.06-.23,.12-.38,.17-.15,.05-.31,.09-.49,.12-.18,.04-.36,.06-.56,.08-.2,.02-.39,.03-.59,.03-.33,0-.63-.05-.91-.14-.28-.09-.53-.24-.74-.44-.21-.2-.37-.46-.49-.78-.12-.32-.18-.7-.18-1.16v-3.99h-1.93v-.97h1.93v-1.78h1.26v1.78Z"/>
      <path class="cls-4" d="M226.24,76.76c.12-.12,.25-.23,.39-.33,.22-.16,.46-.28,.71-.36,.26-.08,.54-.12,.83-.13,.38,0,.73,.06,1.05,.17s.58,.28,.8,.52c.22,.23,.39,.53,.51,.89,.12,.36,.18,.79,.18,1.28v4.62h-1.25v-4.63c0-.29-.03-.54-.1-.76-.07-.22-.17-.4-.3-.55-.14-.16-.32-.28-.53-.36s-.46-.12-.73-.11c-.23,0-.44,.03-.64,.09-.2,.06-.39,.15-.56,.27-.14,.09-.26,.2-.38,.32-.12,.12-.22,.25-.31,.4v5.33h-1.25v-10.42h1.25v4.17c.1-.15,.21-.29,.33-.41Z"/>
      <path class="cls-4" d="M238.52,75.99c.25,.03,.44,.07,.57,.13l-.17,1.23c-.24-.05-.48-.09-.7-.12-.22-.02-.45-.04-.69-.04-.31,0-.59,.04-.83,.11-.25,.07-.46,.18-.65,.33-.17,.13-.31,.28-.44,.46-.12,.18-.23,.39-.31,.61v4.71h-1.26v-7.34h1.19l.05,.98v.18c.3-.4,.66-.72,1.08-.95,.42-.23,.89-.35,1.43-.35,.23,0,.47,.02,.72,.05Z"/>
      <path class="cls-4" d="M241.2,78.2c.15-.45,.38-.85,.67-1.18,.29-.33,.63-.6,1.04-.79,.41-.19,.88-.29,1.39-.29s.99,.1,1.4,.29c.41,.19,.76,.46,1.05,.79,.28,.33,.5,.73,.66,1.18,.15,.45,.23,.95,.23,1.48v.15c0,.53-.08,1.02-.23,1.47-.15,.45-.37,.85-.66,1.18-.29,.33-.64,.6-1.05,.79s-.88,.29-1.39,.29-.99-.1-1.4-.29-.76-.45-1.05-.79c-.29-.33-.51-.73-.67-1.18-.15-.45-.23-.94-.23-1.47v-.15c0-.53,.08-1.02,.23-1.48Zm1.15,2.66c.09,.33,.22,.62,.39,.86,.17,.25,.39,.45,.65,.59,.26,.14,.57,.22,.92,.22s.65-.07,.91-.22c.26-.15,.48-.34,.66-.59,.17-.25,.3-.54,.39-.86,.08-.33,.13-.67,.13-1.03v-.15c0-.36-.04-.7-.13-1.03s-.22-.62-.39-.86c-.18-.25-.39-.45-.65-.59-.26-.15-.56-.22-.91-.22s-.65,.07-.91,.22-.47,.34-.64,.59c-.18,.25-.31,.54-.39,.86s-.13,.67-.13,1.03v.15c0,.36,.04,.71,.13,1.03Z"/>
      <path class="cls-4" d="M254.42,82.4c-.24,.36-.55,.64-.92,.84s-.79,.3-1.27,.3c-.38,0-.73-.06-1.04-.18-.31-.12-.58-.31-.8-.56-.22-.25-.39-.58-.51-.97s-.18-.86-.18-1.41v-4.36h1.25v4.37c0,.4,.03,.73,.09,.99s.16,.47,.29,.62c.13,.16,.28,.27,.46,.33,.18,.06,.39,.1,.63,.1,.28,0,.53-.03,.75-.1,.22-.07,.41-.16,.58-.27,.14-.1,.25-.21,.36-.34,.1-.13,.19-.28,.25-.44v-5.26h1.26v7.34h-1.14l-.07-1.01Z"/>
      <path class="cls-4" d="M257.97,78.17c.13-.46,.33-.85,.58-1.18s.56-.59,.92-.77c.36-.19,.77-.28,1.23-.28,.29,0,.56,.03,.81,.1,.25,.07,.47,.17,.67,.3,.11,.07,.21,.15,.31,.24,.1,.09,.19,.19,.27,.3l.06-.8h1.14v7.18c0,.48-.08,.91-.23,1.29-.15,.38-.36,.69-.63,.96-.28,.26-.6,.46-.98,.6s-.8,.2-1.26,.2c-.19,0-.41-.02-.65-.06s-.49-.11-.74-.21c-.25-.1-.5-.22-.73-.39-.23-.16-.43-.36-.6-.6l.65-.75c.15,.19,.31,.34,.47,.47,.16,.13,.33,.23,.5,.31,.17,.08,.33,.13,.5,.17,.17,.03,.33,.05,.5,.05,.3,0,.57-.04,.81-.13,.24-.09,.45-.21,.62-.38,.17-.16,.3-.37,.39-.61,.09-.24,.13-.52,.13-.84v-.63c-.09,.11-.2,.21-.3,.3-.11,.09-.22,.17-.34,.24-.19,.1-.4,.18-.63,.24s-.48,.08-.75,.08c-.45,0-.85-.1-1.21-.29-.36-.19-.67-.45-.92-.79-.25-.33-.45-.73-.58-1.18-.14-.45-.2-.94-.2-1.47v-.14c0-.55,.07-1.05,.2-1.51Zm1.17,2.67c.07,.32,.19,.6,.36,.85,.16,.24,.36,.44,.61,.58,.25,.14,.55,.21,.9,.21,.22,0,.41-.03,.59-.08,.17-.05,.33-.13,.47-.22,.14-.1,.26-.21,.37-.34,.11-.13,.2-.28,.28-.43v-3.36c-.08-.15-.18-.29-.28-.42-.11-.13-.23-.24-.37-.33-.14-.09-.3-.16-.47-.21-.17-.05-.36-.08-.57-.08-.35,0-.65,.07-.91,.22-.25,.15-.46,.34-.61,.58-.16,.25-.28,.53-.36,.86-.08,.32-.11,.66-.11,1.02v.14c0,.36,.04,.7,.11,1.02Z"/>
      <path class="cls-4" d="M267.92,76.76c.12-.12,.25-.23,.39-.33,.22-.16,.46-.28,.71-.36,.26-.08,.54-.12,.83-.13,.38,0,.73,.06,1.05,.17s.58,.28,.8,.52c.22,.23,.39,.53,.51,.89,.12,.36,.18,.79,.18,1.28v4.62h-1.25v-4.63c0-.29-.03-.54-.1-.76-.07-.22-.17-.4-.3-.55-.14-.16-.32-.28-.53-.36s-.46-.12-.73-.11c-.23,0-.44,.03-.64,.09-.2,.06-.39,.15-.56,.27-.14,.09-.26,.2-.38,.32-.12,.12-.22,.25-.31,.4v5.33h-1.25v-10.42h1.25v4.17c.1-.15,.21-.29,.33-.41Z"/>
      <path class="cls-4" d="M25.21,93.43c.15-.26,.34-.46,.59-.6,.24-.15,.53-.22,.88-.22,.19,0,.37,.02,.53,.06,.16,.04,.29,.11,.41,.19,.09,.06,.16,.14,.23,.23,.07,.09,.13,.19,.18,.31,.06-.1,.14-.2,.22-.29,.09-.09,.18-.17,.28-.24,.13-.08,.27-.14,.42-.18,.16-.04,.33-.07,.51-.08,.25,0,.48,.04,.69,.11,.2,.07,.38,.18,.52,.33,.15,.16,.27,.37,.35,.63,.08,.26,.12,.57,.12,.92v5.48h-1.19v-5.49c0-.15-.02-.29-.05-.41-.04-.12-.09-.21-.16-.29-.07-.07-.16-.13-.27-.16-.11-.04-.23-.05-.37-.05-.15,0-.28,.02-.39,.06-.11,.04-.2,.1-.27,.16-.07,.07-.13,.16-.17,.25-.04,.09-.07,.2-.08,.31v5.63h-1.19v-5.5c0-.15-.02-.29-.05-.41-.03-.12-.09-.21-.16-.29-.07-.07-.15-.12-.25-.16-.1-.03-.22-.05-.36-.05-.15,0-.28,.02-.39,.05s-.2,.08-.28,.15c-.06,.05-.11,.11-.15,.17s-.08,.13-.1,.2v5.84h-1.19v-7.34h1.13l.03,.69Z"/>
      <path class="cls-4" d="M37.64,99.72c-.03-.14-.05-.29-.06-.44-.13,.13-.27,.25-.42,.36-.16,.11-.33,.21-.51,.3-.19,.09-.39,.15-.6,.2-.21,.05-.44,.07-.68,.07-.39,0-.74-.06-1.05-.17-.31-.11-.58-.27-.8-.46-.22-.19-.39-.42-.51-.68s-.18-.55-.18-.86c0-.4,.08-.75,.24-1.06s.39-.56,.68-.76c.29-.2,.65-.35,1.06-.45s.88-.15,1.39-.15h1.37v-.58c0-.22-.04-.42-.12-.6-.08-.18-.2-.33-.35-.45-.15-.12-.33-.22-.55-.29-.21-.07-.46-.1-.72-.1-.25,0-.47,.03-.67,.09-.2,.06-.36,.15-.5,.25-.14,.1-.24,.23-.32,.37-.07,.14-.11,.29-.11,.44h-1.26c0-.27,.07-.53,.21-.79s.33-.49,.58-.7c.25-.2,.55-.37,.91-.5s.77-.19,1.22-.19c.42,0,.8,.05,1.16,.15,.36,.1,.67,.25,.93,.46,.26,.21,.46,.47,.61,.77,.15,.31,.22,.67,.22,1.08v3.41c0,.24,.02,.5,.07,.78,.04,.27,.11,.51,.19,.72v.11h-1.31c-.05-.09-.09-.21-.12-.36Zm-1.41-.7c.21-.06,.41-.15,.58-.25,.17-.1,.32-.22,.45-.36s.23-.27,.3-.42v-1.49h-1.17c-.43,0-.81,.04-1.14,.11-.32,.08-.58,.19-.77,.34-.14,.11-.24,.24-.31,.39-.07,.15-.1,.32-.1,.51s.03,.35,.09,.5c.06,.15,.15,.29,.27,.39,.12,.11,.28,.2,.46,.26,.19,.06,.4,.1,.64,.1s.47-.03,.69-.1Z"/>
      <path class="cls-4" d="M41.27,92.74h1.13l.09,1.09c.11-.15,.23-.3,.36-.42,.13-.13,.27-.24,.41-.33,.22-.14,.45-.26,.71-.34,.26-.08,.53-.12,.81-.13,.38,0,.73,.05,1.05,.16,.31,.11,.58,.28,.8,.51,.22,.23,.39,.52,.51,.88,.12,.36,.18,.78,.18,1.27v4.66h-1.25v-4.63c0-.33-.04-.6-.11-.83-.07-.23-.18-.41-.32-.55-.14-.14-.32-.24-.53-.31-.21-.06-.44-.09-.71-.09-.23,0-.45,.03-.64,.1-.2,.07-.38,.16-.55,.27-.14,.1-.26,.21-.38,.35s-.22,.28-.3,.43v5.26h-1.25v-7.34Z"/>
      <path class="cls-4" d="M49.78,103c-.16-.03-.28-.05-.36-.07l.2-1.02c.11,0,.22,.02,.34,.02,.11,0,.2,0,.26,0,.17,0,.33-.05,.47-.14,.14-.09,.27-.21,.38-.34,.11-.13,.2-.27,.28-.41,.08-.14,.14-.26,.19-.35l.5-.98-3.16-6.99h1.4l2.01,4.73,.33,.89,.35-.86,1.89-4.76h1.4l-3.72,8.47c-.09,.19-.2,.39-.33,.6-.13,.21-.3,.41-.48,.59-.19,.18-.41,.33-.67,.46-.25,.12-.54,.18-.88,.18-.12,0-.26-.01-.41-.04Z"/>
      <path class="cls-4" d="M74.61,92.74h1.15l.06,.8c.1-.13,.21-.24,.33-.34s.24-.19,.38-.26c.19-.11,.4-.19,.63-.25s.48-.08,.75-.08c.47,0,.89,.09,1.25,.28,.36,.19,.66,.44,.91,.77s.43,.72,.56,1.18,.19,.96,.19,1.51v.14c0,.52-.06,1.01-.19,1.47-.13,.45-.31,.85-.56,1.18-.24,.33-.55,.6-.91,.79-.36,.19-.77,.29-1.23,.29-.28,0-.54-.03-.78-.09-.24-.06-.46-.14-.65-.25-.12-.07-.23-.14-.33-.23s-.2-.17-.29-.27v3.53h-1.25v-10.16Zm4.83,2.59c-.08-.32-.2-.61-.36-.86-.17-.24-.38-.44-.63-.58s-.56-.22-.91-.22c-.19,0-.37,.02-.54,.07-.17,.05-.31,.11-.44,.2-.15,.09-.27,.19-.39,.32-.11,.13-.21,.27-.3,.42v3.53c.08,.14,.17,.26,.26,.38,.1,.12,.21,.22,.34,.3,.14,.09,.31,.17,.48,.22,.18,.05,.38,.08,.59,.08,.35,0,.65-.07,.9-.22,.25-.15,.46-.34,.62-.59,.16-.25,.28-.54,.36-.86,.08-.33,.12-.67,.12-1.02v-.14c0-.36-.04-.7-.12-1.02Z"/>
      <path class="cls-4" d="M86.9,89.66v9.33h2.39v1.08h-6.14v-1.08h2.5v-8.24h-2.5v-1.09h3.75Z"/>
      <path class="cls-4" d="M95.99,99.72c-.03-.14-.05-.29-.06-.44-.13,.13-.27,.25-.42,.36-.16,.11-.33,.21-.51,.3-.19,.09-.39,.15-.6,.2-.21,.05-.44,.07-.68,.07-.39,0-.74-.06-1.05-.17-.31-.11-.58-.27-.8-.46-.22-.19-.39-.42-.51-.68s-.18-.55-.18-.86c0-.4,.08-.75,.24-1.06s.39-.56,.68-.76c.29-.2,.65-.35,1.06-.45s.88-.15,1.39-.15h1.37v-.58c0-.22-.04-.42-.12-.6-.08-.18-.2-.33-.35-.45-.15-.12-.33-.22-.55-.29-.21-.07-.46-.1-.72-.1-.25,0-.47,.03-.67,.09-.2,.06-.36,.15-.5,.25-.14,.1-.24,.23-.32,.37-.07,.14-.11,.29-.11,.44h-1.26c0-.27,.07-.53,.21-.79s.33-.49,.58-.7c.25-.2,.55-.37,.91-.5s.77-.19,1.22-.19c.42,0,.8,.05,1.16,.15,.36,.1,.67,.25,.93,.46,.26,.21,.46,.47,.61,.77,.15,.31,.22,.67,.22,1.08v3.41c0,.24,.02,.5,.07,.78,.04,.27,.11,.51,.19,.72v.11h-1.31c-.05-.09-.09-.21-.12-.36Zm-1.41-.7c.21-.06,.41-.15,.58-.25,.17-.1,.32-.22,.45-.36s.23-.27,.3-.42v-1.49h-1.17c-.43,0-.81,.04-1.14,.11-.32,.08-.58,.19-.77,.34-.14,.11-.24,.24-.31,.39-.07,.15-.1,.32-.1,.51s.03,.35,.09,.5c.06,.15,.15,.29,.27,.39,.12,.11,.28,.2,.46,.26,.19,.06,.4,.1,.64,.1s.47-.03,.69-.1Z"/>
      <path class="cls-4" d="M99.62,92.74h1.13l.09,1.09c.11-.15,.23-.3,.36-.42,.13-.13,.27-.24,.41-.33,.22-.14,.45-.26,.71-.34,.26-.08,.53-.12,.81-.13,.38,0,.73,.05,1.05,.16,.31,.11,.58,.28,.8,.51,.22,.23,.39,.52,.51,.88,.12,.36,.18,.78,.18,1.27v4.66h-1.25v-4.63c0-.33-.04-.6-.11-.83-.07-.23-.18-.41-.32-.55-.14-.14-.32-.24-.53-.31-.21-.06-.44-.09-.71-.09-.23,0-.45,.03-.64,.1-.2,.07-.38,.16-.55,.27-.14,.1-.26,.21-.38,.35s-.22,.28-.3,.43v5.26h-1.25v-7.34Z"/>
      <path class="cls-4" d="M115.44,92.74h1.11l.85,4.68,.15,1.05,.18-1.05,1.17-4.68h.81l1.17,4.68,.2,1.15,.18-1.15,.81-4.68h1.11l-1.56,7.34h-.99l-1.15-4.5-.19-1.14-.18,1.14-1.13,4.5h-.99l-1.56-7.34Z"/>
      <path class="cls-4" d="M126.21,93.42c.12-.12,.25-.23,.39-.33,.22-.16,.46-.28,.72-.36,.26-.08,.54-.12,.83-.13,.38,0,.73,.06,1.05,.17,.31,.11,.58,.28,.8,.52s.39,.53,.51,.89c.12,.36,.18,.79,.18,1.28v4.62h-1.25v-4.63c0-.29-.03-.54-.1-.76-.07-.22-.17-.4-.3-.55-.14-.16-.32-.28-.53-.36s-.46-.12-.73-.11c-.23,0-.44,.03-.64,.09-.2,.06-.39,.15-.56,.27-.14,.09-.26,.2-.38,.32s-.22,.25-.31,.4v5.33h-1.25v-10.42h1.25v4.17c.1-.15,.21-.29,.33-.41Z"/>
      <path class="cls-4" d="M136.91,92.74v6.25h2.39v1.08h-6.14v-1.08h2.5v-5.16h-2.5v-1.09h3.75Zm-1.37-2.23c.03-.09,.09-.18,.16-.24,.06-.06,.13-.1,.23-.14s.2-.05,.32-.05,.22,.02,.31,.05,.17,.08,.22,.14c.07,.06,.13,.14,.16,.24,.04,.1,.05,.2,.05,.31,0,.2-.06,.37-.19,.51-.13,.14-.31,.2-.56,.2s-.44-.07-.57-.2-.19-.31-.19-.51c0-.11,.02-.21,.05-.31Z"/>
      <path class="cls-4" d="M145.24,89.66v9.33h2.39v1.08h-6.14v-1.08h2.5v-8.24h-2.5v-1.09h3.75Z"/>
      <path class="cls-4" d="M151.45,99.95c-.43-.18-.8-.42-1.11-.74-.31-.32-.55-.69-.72-1.13-.17-.43-.26-.91-.26-1.42v-.29c0-.59,.1-1.12,.29-1.59s.44-.86,.76-1.19c.31-.32,.67-.57,1.07-.74,.4-.17,.81-.26,1.23-.26,.53,0,.99,.09,1.39,.28,.4,.18,.72,.43,.99,.76,.26,.33,.46,.71,.59,1.15s.19,.91,.19,1.42v.56h-5.24v.05c.03,.36,.1,.67,.21,.94s.26,.51,.46,.72c.2,.22,.44,.4,.72,.52,.28,.13,.59,.19,.93,.19,.45,0,.85-.09,1.19-.27,.35-.18,.64-.42,.87-.72l.77,.6c-.24,.37-.61,.7-1.1,.99-.49,.29-1.09,.43-1.8,.43-.52,0-.99-.09-1.42-.26Zm.54-6.18c-.23,.09-.43,.23-.61,.4-.18,.18-.33,.4-.46,.66-.12,.26-.21,.56-.26,.9h3.95v-.06c0-.23-.04-.47-.13-.73-.09-.26-.21-.49-.36-.67-.15-.19-.35-.34-.58-.46-.23-.12-.51-.18-.83-.18-.25,0-.49,.05-.72,.14Z"/>
      <path class="cls-4" d="M185.94,92.74h2.79v.97h-2.79v3.99c0,.29,.04,.52,.11,.71,.07,.18,.17,.33,.3,.44,.13,.11,.27,.19,.44,.24s.34,.07,.53,.07c.14,0,.28,0,.42-.02s.29-.04,.43-.06c.13-.02,.26-.05,.38-.07,.12-.02,.22-.05,.29-.06l.18,.89c-.1,.06-.23,.12-.38,.17-.15,.05-.31,.09-.49,.12-.18,.04-.36,.06-.56,.08-.2,.02-.39,.03-.59,.03-.33,0-.63-.05-.91-.14-.28-.09-.53-.24-.74-.44-.21-.2-.37-.46-.49-.78-.12-.32-.18-.7-.18-1.16v-3.99h-1.93v-.97h1.93v-1.78h1.26v1.78Z"/>
    </g>
    <g id="Error" class="c7">
      <path class="cls-6" d="M143.12,83.28c-.43-.18-.8-.42-1.11-.74-.31-.32-.55-.69-.72-1.13s-.26-.91-.26-1.42v-.28c0-.59,.1-1.12,.29-1.59,.19-.47,.44-.86,.76-1.19,.31-.32,.67-.57,1.07-.74,.4-.17,.81-.26,1.23-.26,.53,0,.99,.09,1.39,.27,.4,.18,.72,.44,.99,.76,.26,.33,.46,.71,.59,1.15,.13,.44,.19,.91,.19,1.42v.56h-5.24v.05c.03,.36,.1,.67,.21,.94,.11,.27,.26,.51,.46,.72,.2,.22,.44,.4,.72,.52,.28,.13,.59,.19,.93,.19,.45,0,.85-.09,1.19-.27,.35-.18,.64-.42,.87-.72l.77,.6c-.24,.37-.61,.7-1.1,.99-.49,.29-1.09,.43-1.8,.43-.52,0-.99-.09-1.42-.26Zm.54-6.18c-.23,.09-.43,.23-.61,.4-.18,.18-.33,.4-.46,.66-.12,.26-.21,.56-.26,.9h3.95v-.06c0-.23-.04-.47-.13-.73-.09-.26-.21-.48-.36-.67s-.35-.34-.58-.46c-.23-.12-.51-.18-.83-.18-.25,0-.49,.05-.72,.14Z"/>
      <path class="cls-6" d="M153.58,72.99v9.33h2.39v1.08h-6.14v-1.08h2.5v-8.24h-2.5v-1.09h3.75Z"/>
      <path class="cls-6" d="M157.96,76.07h1.15l.06,.8c.1-.13,.21-.24,.33-.34,.12-.1,.24-.19,.38-.26,.19-.11,.4-.19,.63-.25,.23-.06,.48-.08,.75-.08,.47,0,.88,.09,1.25,.28,.36,.19,.66,.44,.91,.77s.43,.72,.56,1.18,.19,.96,.19,1.51v.14c0,.52-.06,1.01-.19,1.47-.13,.45-.31,.85-.56,1.18-.24,.33-.55,.6-.91,.79s-.77,.29-1.23,.29c-.28,0-.54-.03-.78-.09s-.46-.14-.65-.25c-.12-.07-.23-.14-.33-.23-.1-.08-.2-.18-.29-.27v3.53h-1.25v-10.16Zm4.83,2.59c-.08-.32-.2-.61-.36-.86-.17-.24-.38-.44-.63-.58-.25-.14-.56-.22-.91-.22-.2,0-.38,.02-.54,.07-.17,.05-.31,.11-.45,.2-.14,.09-.27,.19-.39,.32s-.21,.27-.3,.42v3.53c.08,.14,.17,.26,.26,.38s.21,.22,.34,.3c.14,.1,.3,.17,.48,.22,.18,.05,.38,.08,.59,.08,.35,0,.65-.07,.9-.22,.25-.15,.46-.34,.62-.59,.16-.25,.28-.54,.36-.86,.08-.33,.12-.67,.12-1.02v-.14c0-.36-.04-.7-.12-1.02Z"/>
      <path class="cls-6" d="M166.18,94.87c.15-.46,.38-.85,.67-1.18,.29-.33,.63-.6,1.04-.79,.41-.19,.88-.29,1.39-.29s.99,.1,1.4,.29c.41,.19,.76,.46,1.05,.79,.28,.33,.5,.73,.66,1.18,.15,.45,.23,.95,.23,1.47v.15c0,.53-.08,1.02-.23,1.47-.15,.45-.37,.85-.66,1.18-.29,.33-.64,.6-1.05,.79-.41,.19-.88,.29-1.39,.29s-.99-.09-1.4-.29c-.41-.19-.76-.45-1.05-.79-.29-.33-.51-.73-.67-1.18-.15-.45-.23-.94-.23-1.47v-.15c0-.53,.08-1.02,.23-1.47Zm1.15,2.66c.09,.33,.22,.62,.39,.87,.17,.25,.39,.45,.65,.59,.26,.14,.57,.22,.92,.22s.65-.07,.91-.22c.26-.14,.48-.34,.66-.59,.17-.25,.3-.54,.39-.87,.08-.33,.13-.67,.13-1.03v-.15c0-.36-.04-.7-.13-1.03s-.22-.62-.39-.87c-.18-.25-.39-.45-.65-.59-.26-.15-.56-.22-.91-.22s-.65,.07-.91,.22c-.26,.15-.47,.34-.64,.59-.18,.25-.31,.54-.39,.87s-.13,.67-.13,1.03v.15c0,.36,.04,.71,.13,1.03Z"/>
      <path class="cls-6" d="M179.4,99.07c-.24,.36-.55,.64-.92,.84s-.79,.3-1.27,.3c-.38,0-.73-.06-1.04-.18-.31-.12-.58-.31-.8-.56-.22-.25-.39-.58-.51-.97-.12-.39-.18-.86-.18-1.41v-4.36h1.25v4.38c0,.4,.03,.73,.09,.99s.16,.47,.29,.62c.13,.16,.28,.27,.46,.33,.18,.06,.39,.09,.63,.09,.28,0,.53-.03,.75-.1s.41-.16,.58-.28c.14-.09,.25-.21,.36-.34,.1-.13,.19-.28,.25-.44v-5.26h1.26v7.34h-1.14l-.07-1.01Z"/>
    </g>
    <g id="Extra" class="c8">
      <path class="cls-2" d="M166.3,76.07h1.15l.06,.8c.1-.13,.21-.24,.33-.34,.12-.1,.24-.19,.38-.26,.19-.11,.4-.19,.63-.25,.23-.06,.48-.08,.75-.08,.47,0,.89,.09,1.25,.28,.36,.19,.66,.44,.91,.77s.43,.72,.56,1.18,.19,.96,.19,1.51v.14c0,.52-.06,1.01-.19,1.47-.13,.45-.31,.85-.56,1.18-.24,.33-.55,.6-.91,.79s-.77,.29-1.23,.29c-.28,0-.54-.03-.78-.09-.24-.06-.46-.14-.66-.25-.12-.07-.23-.14-.33-.23-.1-.08-.2-.18-.29-.27v3.53h-1.25v-10.16Zm4.83,2.59c-.08-.32-.2-.61-.36-.86-.17-.24-.38-.44-.63-.58-.25-.14-.56-.22-.91-.22-.19,0-.37,.02-.54,.07-.17,.05-.31,.11-.44,.2-.14,.09-.27,.19-.39,.32s-.21,.27-.3,.42v3.53c.08,.14,.17,.26,.26,.38s.21,.22,.34,.3c.14,.1,.31,.17,.48,.22s.38,.08,.59,.08c.35,0,.65-.07,.9-.22,.25-.15,.46-.34,.62-.59,.16-.25,.28-.54,.36-.86,.08-.33,.12-.67,.12-1.02v-.14c0-.36-.04-.7-.12-1.02Z"/>
      <path class="cls-2" d="M58.12,103c-.16-.03-.28-.05-.36-.07l.2-1.02c.11,0,.22,.02,.34,.02,.11,0,.2,0,.26,0,.17,0,.33-.05,.47-.14,.14-.09,.27-.21,.38-.34,.11-.13,.2-.27,.28-.41,.08-.14,.14-.26,.19-.35l.5-.98-3.16-6.99h1.4l2.01,4.73,.33,.89,.35-.86,1.89-4.76h1.4l-3.72,8.47c-.09,.19-.2,.39-.33,.6-.13,.21-.3,.41-.48,.59-.19,.18-.41,.33-.67,.46-.25,.12-.54,.18-.88,.18-.12,0-.26-.01-.41-.04Z"/>
    </g>
  </g>
  <g id="Footer-2" data-name="Footer" class="c4">
    <g id="Buttons-3" data-name="Buttons">
      <g id="Support">
        <path class="cls-7" d="M16.62,155.35c-.29,.1-.6,.16-.93,.16s-.64-.06-.93-.16c0,0,0,0-.01,0-.39-.14-.74-.38-1.03-.67-.47-.49-.76-1.16-.76-1.89,0-1.51,1.22-2.73,2.73-2.73s2.73,1.22,2.73,2.73c0,.73-.29,1.4-.76,1.89-.01,.01-.03,.03-.04,.04-.28,.28-.62,.5-1,.64h0Zm-.93-4.09c-.15,0-.26,.12-.26,.26v.08c-.07,.02-.14,.04-.21,.07-.2,.09-.37,.25-.41,.49-.02,.13-.01,.26,.04,.38,.06,.12,.14,.2,.23,.26,.15,.1,.35,.16,.51,.21h.03c.18,.06,.31,.11,.38,.16,.03,.02,.04,.04,.05,.05,0,.01,.01,.03,0,.09,0,.05-.03,.08-.1,.12-.08,.03-.21,.05-.38,.02-.08-.01-.22-.06-.34-.1h0s-.06-.02-.08-.03c-.14-.05-.29,.03-.33,.17-.05,.14,.03,.29,.17,.33,.02,0,.04,.01,.06,.02,.1,.04,.27,.09,.39,.12v.08c0,.15,.12,.26,.26,.26s.26-.12,.26-.26v-.07c.07-.01,.14-.03,.2-.06,.21-.09,.37-.26,.41-.51,.02-.14,.01-.27-.04-.39-.05-.12-.13-.2-.22-.27-.16-.12-.37-.18-.53-.23h-.01c-.19-.06-.31-.1-.39-.15-.03-.02-.04-.04-.05-.05,0,0,0-.02,0-.07,0-.02,.02-.07,.11-.11,.08-.04,.22-.06,.38-.03,.06,0,.23,.04,.28,.06,.14,.04,.28-.05,.32-.19s-.05-.28-.19-.32c-.06-.02-.19-.04-.28-.06v-.08c0-.15-.12-.26-.26-.26Zm-2.73,3.41h.21c.26,.34,.58,.63,.95,.84h-.95v.42h5.04v-.42h-.95c.37-.21,.69-.5,.95-.84h.21c.35,0,.63,.28,.63,.63v.84c0,.35-.28,.63-.63,.63h-5.46c-.35,0-.63-.28-.63-.63v-.84c0-.35,.28-.63,.63-.63Z"/>
        <text class="cls-8" transform="translate(23.44 154.87)"><tspan x="0" y="0">Support</tspan></text>
      </g>
      <g id="Github">
        <path class="cls-7" d="M104.07,150.28c-.21-.06-.43,.06-.49,.27l-1.57,5.49c-.06,.21,.06,.43,.27,.49s.43-.06,.49-.27l1.57-5.49c.06-.21-.06-.43-.27-.49Zm.99,1.47c-.15,.15-.15,.4,0,.56l1.1,1.1-1.1,1.1c-.15,.15-.15,.4,0,.56s.4,.15,.56,0l1.37-1.37c.15-.15,.15-.4,0-.56l-1.37-1.37c-.15-.15-.4-.15-.56,0h0Zm-3.76,0c-.15-.15-.4-.15-.56,0l-1.37,1.37c-.15,.15-.15,.4,0,.56l1.37,1.37c.15,.15,.4,.15,.56,0s.15-.4,0-.56l-1.1-1.1,1.1-1.1c.15-.15,.15-.4,0-.56Z"/>
        <text class="cls-8" transform="translate(111.48 154.83)"><tspan x="0" y="0">GitHub</tspan></text>
      </g>
      <g id="Discord">
        <path class="cls-7" d="M63.04,150.76s0,0-.01,0c-.54-.25-1.11-.43-1.7-.53-.01,0-.02,0-.03,.01-.08,.14-.15,.29-.21,.44-.63-.1-1.28-.1-1.91,0-.06-.15-.14-.29-.22-.44,0,0-.02-.01-.03-.01-.59,.1-1.16,.28-1.7,.53,0,0,0,0-.01,0-1.08,1.62-1.38,3.2-1.24,4.76,0,0,0,.01,.01,.02,.63,.47,1.34,.82,2.09,1.06,.01,0,.02,0,.03,0,.16-.22,.3-.45,.43-.69,0-.01,0-.03-.01-.04,0,0,0,0,0,0-.23-.09-.44-.19-.65-.31-.01,0-.02-.02,0-.04,0,0,0,0,0,0,.04-.03,.09-.07,.13-.1,0,0,.02,0,.03,0,1.37,.62,2.85,.62,4.2,0,0,0,.02,0,.03,0,.04,.03,.09,.07,.13,.1,.01,0,.01,.03,0,.04,0,0,0,0,0,0-.21,.12-.43,.23-.65,.31-.01,0-.02,.02-.02,.03,0,0,0,0,0,0,.13,.24,.27,.47,.43,.69,0,0,.02,.01,.03,0,.75-.23,1.46-.59,2.09-1.06,0,0,.01-.01,.01-.02,.17-1.8-.29-3.37-1.24-4.76Zm-4.3,3.81c-.41,0-.75-.38-.75-.84s.33-.84,.75-.84,.76,.38,.75,.84c0,.46-.33,.84-.75,.84Zm2.78,0c-.41,0-.75-.38-.75-.84s.33-.84,.75-.84,.76,.38,.75,.84c0,.46-.33,.84-.75,.84Z"/>
        <text class="cls-8" transform="translate(68.42 154.83)"><tspan x="0" y="0">Discord</tspan></text>
      </g>
    </g>
    <g id="Theme_Name" data-name="Theme Name">
      <path class="cls-7" d="M287.78,153.41v.03c0,.45-.42,.76-.87,.76h-1.22c-.33,0-.6,.27-.6,.6,0,.04,0,.08,.01,.12,.03,.13,.08,.25,.13,.37,.08,.17,.15,.34,.15,.52,0,.4-.27,.76-.66,.77-.04,0-.09,0-.13,0-1.76,0-3.19-1.43-3.19-3.19s1.43-3.19,3.19-3.19,3.19,1.43,3.19,3.19Zm-4.78,.4c0-.22-.18-.4-.4-.4s-.4,.18-.4,.4,.18,.4,.4,.4,.4-.18,.4-.4Zm0-1.2c.22,0,.4-.18,.4-.4s-.18-.4-.4-.4-.4,.18-.4,.4,.18,.4,.4,.4Zm1.99-1.2c0-.22-.18-.4-.4-.4s-.4,.18-.4,.4,.18,.4,.4,.4,.4-.18,.4-.4Zm1.2,1.2c.22,0,.4-.18,.4-.4s-.18-.4-.4-.4-.4,.18-.4,.4,.18,.4,.4,.4Z"/>
      <text text-anchor="end" class="cls-8" transform="translate(276, 154.83)"><tspan x="0" y="0">{title}</tspan></text>
    </g>
  </g>
  <g id="Control_Bar" data-name="Control Bar">
    <rect id="Background-2" data-name="Background" class="cls-9 c5" x="45.68" y="44.67" width="197.65" height="14.67" rx="4.49" ry="4.49"/>
    <g id="Buttons-4" data-name="Buttons" class="c4">
      <g id="Time">
        <text class="cls-8" transform="translate(62.57 53.72)"><tspan x="0" y="0">time</tspan></text>
        <path class="cls-7" d="M56.13,49.09c1.45,0,2.62,1.18,2.62,2.62s-1.18,2.62-2.62,2.62-2.62-1.18-2.62-2.62,1.18-2.62,2.62-2.62Zm-.25,1.23v1.39c0,.08,.04,.16,.11,.21l.98,.66c.11,.08,.27,.05,.34-.07s.05-.27-.07-.34l-.87-.58v-1.26c0-.14-.11-.25-.25-.25s-.25,.11-.25,.25Z"/>
      </g>
      <g id="Words">
        <path class="cls-7" d="M86.01,49.34c-.06-.15-.2-.24-.35-.24s-.3,.1-.35,.24l-1.6,4.26h-.3c-.21,0-.38,.17-.38,.38s.17,.38,.38,.38h1.12c.21,0,.38-.17,.38-.38s-.17-.38-.38-.38h-.02l.21-.56h1.87l.21,.56h-.02c-.21,0-.38,.17-.38,.38s.17,.38,.38,.38h1.12c.21,0,.38-.17,.38-.38s-.17-.38-.38-.38h-.3l-1.6-4.26Zm.3,2.94h-1.31l.65-1.74,.65,1.74Z"/>
        <text class="cls-8" transform="translate(90.91 53.67)"><tspan x="0" y="0">words</tspan></text>
      </g>
      <g id="Quote">
        <g>
          <path class="cls-7" d="M115.48,51.06c0-1.09,.88-1.97,1.97-1.97h.13c.29,0,.52,.23,.52,.52s-.23,.52-.52,.52h-.13c-.51,0-.92,.41-.92,.92v.13h1.05c.58,0,1.05,.47,1.05,1.05v1.05c0,.58-.47,1.05-1.05,1.05h-1.05c-.58,0-1.05-.47-1.05-1.05v-2.23Z"/>
          <path class="cls-7" d="M118.99,51.06c0-1.09,.88-1.97,1.97-1.97h.13c.29,0,.52,.23,.52,.52s-.23,.52-.52,.52h-.13c-.51,0-.92,.41-.92,.92v.13h1.05c.58,0,1.05,.47,1.05,1.05v1.05c0,.58-.47,1.05-1.05,1.05h-1.05c-.58,0-1.05-.47-1.05-1.05v-2.23Z"/>
        </g>
        <text class="cls-8" transform="translate(125.85 53.67)"><tspan x="0" y="0">quote</tspan></text>
      </g>
      <g id="Zen">
        <path class="cls-7" d="M151.5,49.09c.15,0,.28,.08,.36,.2l2.54,4.05c.07,.1,.1,.23,.1,.35,0,.36-.29,.66-.66,.66h-4.69c-.36,0-.66-.29-.66-.66,0-.12,.04-.24,.1-.35l2.54-4.05c.08-.12,.21-.2,.36-.2Zm.76,2.25l-.76-1.21-.93,1.48,.21,.29c.07,.1,.22,.1,.3,0l.3-.4c.07-.09,.18-.15,.3-.15h.57Z"/>
        <text class="cls-8" transform="translate(158.93 53.67)"><tspan x="0" y="0">zen</tspan></text>
      </g>
      <g id="Times">
        <text class="cls-8" transform="translate(188.22 53.72)"><tspan x="0" y="0" xml:space="preserve">15    30    40    60</tspan></text>
      </g>
    </g>
    <rect id="Separator" class="cls-3 c1" x="176.72" y="47.29" width="1.61" height="9.36" rx=".49" ry=".49"/>
  </g>
  <g id="Header-2" data-name="Header">
    <g id="Buttons-5" data-name="Buttons" class="c4">
      <g id="Right">
        <path class="cls-7" d="M285.56,21.36c0-.71-.58-1.29-1.29-1.29s-1.29,.58-1.29,1.29,.58,1.29,1.29,1.29,1.29-.58,1.29-1.29Zm-3.34,0c0-1.14,.92-2.06,2.06-2.06s2.06,.92,2.06,2.06-.92,2.06-2.06,2.06-2.06-.92-2.06-2.06Zm-.75,5.4h5.61c-.14-1.02-1.02-1.8-2.07-1.8h-1.47c-1.06,0-1.93,.78-2.07,1.8Zm-.79,.29c0-1.58,1.28-2.86,2.86-2.86h1.47c1.58,0,2.86,1.28,2.86,2.86,0,.26-.21,.48-.48,.48h-6.24c-.26,0-.48-.21-.48-.48Z"/>
        <path class="cls-7" d="M267.97,19.3c-.28,0-.51,.23-.51,.51v.31c-1.17,.24-2.06,1.28-2.06,2.52v.3c0,.76-.28,1.48-.78,2.05l-.12,.13c-.13,.15-.17,.37-.09,.55s.27,.3,.47,.3h6.17c.2,0,.39-.12,.47-.3s.05-.4-.09-.55l-.12-.13c-.5-.57-.78-1.29-.78-2.05v-.3c0-1.24-.88-2.28-2.06-2.52v-.31c0-.28-.23-.51-.51-.51Zm.73,7.93c.19-.19,.3-.45,.3-.73h-2.06c0,.27,.11,.54,.3,.73s.45,.3,.73,.3,.54-.11,.73-.3Z"/>
      </g>
      <g id="Left">
        <path class="cls-7" d="M155.61,20.09c-.61,0-1.11,.5-1.11,1.11v4.43c0,.61,.5,1.11,1.11,1.11h7.75c.61,0,1.11-.5,1.11-1.11v-4.43c0-.61-.5-1.11-1.11-1.11h-7.75Zm.28,1.11h.55c.15,0,.28,.12,.28,.28v.55c0,.15-.12,.28-.28,.28h-.55c-.15,0-.28-.12-.28-.28v-.55c0-.15,.12-.28,.28-.28Zm-.28,1.94c0-.15,.12-.28,.28-.28h.55c.15,0,.28,.12,.28,.28v.55c0,.15-.12,.28-.28,.28h-.55c-.15,0-.28-.12-.28-.28v-.55Zm.28,1.38h.55c.15,0,.28,.12,.28,.28v.55c0,.15-.12,.28-.28,.28h-.55c-.15,0-.28-.12-.28-.28v-.55c0-.15,.12-.28,.28-.28Zm1.38-3.05c0-.15,.12-.28,.28-.28h.55c.15,0,.28,.12,.28,.28v.55c0,.15-.12,.28-.28,.28h-.55c-.15,0-.28-.12-.28-.28v-.55Zm.28,1.38h.55c.15,0,.28,.12,.28,.28v.55c0,.15-.12,.28-.28,.28h-.55c-.15,0-.28-.12-.28-.28v-.55c0-.15,.12-.28,.28-.28Zm-.28,1.94c0-.15,.12-.28,.28-.28h3.88c.15,0,.28,.12,.28,.28v.55c0,.15-.12,.28-.28,.28h-3.88c-.15,0-.28-.12-.28-.28v-.55Zm1.94-3.6h.55c.15,0,.28,.12,.28,.28v.55c0,.15-.12,.28-.28,.28h-.55c-.15,0-.28-.12-.28-.28v-.55c0-.15,.12-.28,.28-.28Zm-.28,1.94c0-.15,.12-.28,.28-.28h.55c.15,0,.28,.12,.28,.28v.55c0,.15-.12,.28-.28,.28h-.55c-.15,0-.28-.12-.28-.28v-.55Zm1.94-1.94h.55c.15,0,.28,.12,.28,.28v.55c0,.15-.12,.28-.28,.28h-.55c-.15,0-.28-.12-.28-.28v-.55c0-.15,.12-.28,.28-.28Zm-.28,1.94c0-.15,.12-.28,.28-.28h.55c.15,0,.28,.12,.28,.28v.55c0,.15-.12,.28-.28,.28h-.55c-.15,0-.28-.12-.28-.28v-.55Zm1.94-1.94h.55c.15,0,.28,.12,.28,.28v.55c0,.15-.12,.28-.28,.28h-.55c-.15,0-.28-.12-.28-.28v-.55c0-.15,.12-.28,.28-.28Zm-.28,1.94c0-.15,.12-.28,.28-.28h.55c.15,0,.28,.12,.28,.28v.55c0,.15-.12,.28-.28,.28h-.55c-.15,0-.28-.12-.28-.28v-.55Zm.28,1.38h.55c.15,0,.28,.12,.28,.28v.55c0,.15-.12,.28-.28,.28h-.55c-.15,0-.28-.12-.28-.28v-.55c0-.15,.12-.28,.28-.28Z"/>
        <path class="cls-7" d="M176.15,20.82c.2-.12,.33-.34,.33-.59,0-.38-.31-.69-.69-.69s-.69,.31-.69,.69c0,.25,.13,.47,.33,.59l-.99,1.98c-.16,.32-.57,.41-.84,.19l-1.54-1.23c.09-.12,.14-.26,.14-.42,0-.38-.31-.69-.69-.69s-.69,.31-.69,.69,.31,.69,.69,.69h.01l.79,4.35c.1,.53,.55,.91,1.09,.91h4.8c.53,0,.99-.38,1.09-.91l.79-4.35h.01c.38,0,.69-.31,.69-.69s-.31-.69-.69-.69-.69,.31-.69,.69c0,.16,.05,.3,.14,.42l-1.54,1.23c-.28,.22-.68,.13-.84-.19l-.99-1.98Z"/>
        <path class="cls-7" d="M191.26,20.09c0-.46,.37-.83,.83-.83s.83,.37,.83,.83-.37,.83-.83,.83-.83-.37-.83-.83Zm-.83,2.49c0-.31,.25-.55,.55-.55h1.11c.31,0,.55,.25,.55,.55v3.88h.55c.31,0,.55,.25,.55,.55s-.25,.55-.55,.55h-2.22c-.31,0-.55-.25-.55-.55s.25-.55,.55-.55h.55v-3.32h-.55c-.31,0-.55-.25-.55-.55Z"/>
        <path class="cls-7" d="M212.55,21.87c.06,.15,0,.32-.11,.43l-.75,.68c.02,.14,.03,.29,.03,.44s-.01,.3-.03,.44l.75,.68c.12,.11,.17,.28,.11,.43-.08,.21-.17,.4-.27,.59l-.08,.14c-.11,.19-.24,.37-.38,.54-.1,.12-.27,.17-.42,.12l-.96-.31c-.23,.18-.49,.33-.76,.44l-.22,.99c-.03,.16-.16,.28-.32,.31-.24,.04-.48,.06-.74,.06s-.5-.02-.74-.06c-.16-.03-.28-.15-.32-.31l-.22-.99c-.27-.11-.53-.26-.76-.44l-.96,.31c-.15,.05-.32,0-.42-.12-.14-.17-.27-.35-.38-.54l-.08-.14c-.11-.19-.2-.39-.27-.59-.06-.15,0-.32,.11-.43l.75-.68c-.02-.15-.03-.29-.03-.44s.01-.3,.03-.44l-.75-.68c-.12-.11-.17-.28-.11-.43,.08-.21,.17-.4,.27-.59l.08-.14c.11-.19,.24-.37,.38-.54,.1-.12,.27-.17,.42-.12l.96,.31c.23-.18,.49-.33,.76-.44l.22-.99c.03-.16,.16-.28,.32-.31,.24-.04,.48-.06,.74-.06s.5,.02,.74,.06c.16,.03,.28,.15,.32,.31l.22,.99c.27,.11,.53,.26,.76,.44l.96-.31c.15-.05,.32,0,.42,.12,.14,.17,.27,.35,.38,.54l.08,.14c.11,.19,.2,.39,.27,.59h0Zm-4.15,2.93c.76,0,1.38-.62,1.38-1.38s-.62-1.38-1.38-1.38-1.38,.62-1.38,1.38,.62,1.38,1.38,1.38Z"/>
      </g>
    </g>
    <g id="Logo">
      <g class="c2">
        <path class="cls-1" d="M34.7,25.36h0c.49,0,.89,.4,.89,.89h0c0,.49-.4,.89-.89,.89h0c-.49,0-.89-.4-.89-.89h0c0-.49,.4-.89,.89-.89Z"/>
        <path class="cls-1" d="M22.18,25.36h5.37c.49,0,.89,.4,.89,.89h0c0,.49-.4,.89-.89,.89h-5.37c-.49,0-.89-.4-.89-.89h0c0-.49,.4-.89,.89-.89Z"/>
        <path class="cls-1" d="M20.39,19.99h0c.49,0,.89,.4,.89,.89v1.79c0,.49-.4,.89-.89,.89h0c-.49,0-.89-.4-.89-.89v-1.79c0-.49,.4-.89,.89-.89Z"/>
        <path class="cls-1" d="M15.91,20.84c.02-1.46,1.22-2.64,2.68-2.64h0c.69,0,1.31,.26,1.79,.68,.48-.43,1.1-.68,1.79-.68h0c1.47,0,2.66,1.18,2.68,2.64,0,.02,0,.03,0,.05h0v1.79c0,.49-.4,.89-.89,.89h0c-.49,0-.89-.4-.89-.89v-1.79h0c0-.49-.4-.89-.89-.89s-.89,.4-.89,.89h0v1.79c0,.49-.4,.89-.89,.89h0c-.49,0-.89-.4-.89-.89v-1.79h0c0-.49-.4-.89-.89-.89s-.89,.4-.89,.89h0v1.79c0,.49-.4,.89-.89,.89h0c-.49,0-.89-.4-.89-.89v-1.79h0s0-.03,0-.05Z"/>
        <path class="cls-1" d="M32.02,23.57v2.68c0,.49-.4,.89-.89,.89h0c-.49,0-.89-.4-.89-.89v-2.68h-2.58c-.55,0-1-.4-1-.89h0c0-.49,.45-.89,1-.89h6.95c.55,0,1,.4,1,.89h0c0,.49-.45,.89-1,.89h-2.58Z"/>
        <path class="cls-1" d="M31.12,18.2h3.58c.49,0,.89,.4,.89,.89h0c0,.49-.4,.89-.89,.89h-3.58c-.49,0-.89-.4-.89-.89h0c0-.49,.4-.89,.89-.89Z"/>
        <path class="cls-1" d="M16.81,25.36h1.79c.49,0,.89,.4,.89,.89h0c0,.49-.4,.89-.89,.89h-1.79c-.49,0-.89-.4-.89-.89h0c0-.49,.4-.89,.89-.89Z"/>
        <path class="cls-1" d="M27.1,18.2h.45c.49,0,.89,.4,.89,.89h0c0,.49-.4,.89-.89,.89h-.45c-.49,0-.89-.4-.89-.89h0c0-.49,.4-.89,.89-.89Z"/>
        <path class="cls-1" d="M14.12,25.36h-1.79v-6.26c0-2.47,2-4.47,4.47-4.47h17.89c2.47,0,4.47,2,4.47,4.47v7.16c0,2.47-2,4.47-4.47,4.47H16.81c-2.47,0-4.47-2-4.47-4.47v-1.79h1.79v1.79c0,1.48,1.2,2.68,2.68,2.68h17.89c1.48,0,2.68-1.2,2.68-2.68v-7.16c0-1.48-1.2-2.68-2.68-2.68H16.81c-1.48,0-2.68,1.2-2.68,2.68v6.26Z"/>
      </g>
      <text class="cls-5 c6" transform="translate(42.27 27.72)"><tspan x="0" y="0">monkeytype</tspan></text>
      <text class="cls-8 c4" transform="translate(43.38 16.94)"><tspan x="0" y="0">monkey see</tspan></text>
    </g>
  </g>
</svg>